<svg xmlns="http://www.w3.org/2000/svg" width="1920" height="948" viewBox="0 0 1920 948" fill="none">
<path d="M2106.38 367.029L2142 459.757C2124.74 651.352 1838.76 645.655 1540.63 599.974C1242.51 554.305 848.435 1082.71 627.906 962.464C407.365 842.193 56.806 1059 56.806 1059L29.4717 987.841C29.4717 987.841 381.786 775.621 612.389 914.117C842.992 1052.61 1215.39 522.085 1516.91 570.831C1818.44 619.599 2106.89 611.403 2106.38 367.041V367.029Z" fill="white"/>
<path d="M2033.58 177.522L2070.18 272.792C2088.44 569.909 1797.54 591.956 1492.61 540.133C1187.69 488.322 836.95 1020.94 596.273 864.228C355.606 707.495 1.53757 915.15 1.53757 915.15L-26.7742 841.427C-26.7742 841.427 329.05 638.347 579.768 813.305C830.508 988.264 1159.58 453.537 1467.91 508.425C1776.26 563.323 2069.62 527.383 2033.58 177.522Z" fill="white"/>
<path d="M1959.68 -14.9182L1996.73 81.5405C2050.52 484.179 1754.7 533.98 1442.96 476.005C1131.23 418.03 823.811 954.878 563.007 761.683C302.237 568.499 -55.3414 767.014 -55.3414 767.014L-84.1196 692.079C-84.1196 692.079 275.214 498.14 546.058 709.572C816.913 920.992 1102.66 382.056 1417.8 443.097C1732.95 504.104 2031.23 440.443 1959.69 -14.9182H1959.68Z" fill="white"/>
<path d="M1813.69 -395L1847.76 -306.282C1972.58 307.355 1666.94 412.654 1341.59 342.418C1016.23 272.181 795.477 817.415 494.433 551.284C193.4 285.165 -171.198 465.399 -171.198 465.399L-197 398.238C-197 398.238 169.364 222.58 480.449 506.925C791.556 791.292 990.649 243.938 1319.4 317.24C1648.15 390.564 1956.26 271.393 1813.68 -395H1813.69Z" fill="white"/>
<path d="M1885.16 -208.913L1922.47 -111.788C2011.77 396.35 1711.05 473.895 1392.5 409.8C1073.94 345.694 809.883 886.729 528.964 657.083C248.035 427.415 -113.053 616.789 -113.053 616.789L-142.087 541.211C-142.087 541.211 220.756 356.412 511.737 604.284C802.719 852.177 1045.13 309.043 1367.1 376.214C1689.03 443.397 1992.22 351.958 1885.17 -208.913H1885.16Z" fill="white"/>
</svg>