<svg width="24" height="20" viewBox="0 0 24 20" fill="none" xmlns="http://www.w3.org/2000/svg">
<path id="Vector" fill-rule="evenodd" clip-rule="evenodd" d="M5.08743 0C3.71465 0 2.52858 0.989358 2.24166 2.37379L0.0412998 12.9909C-0.203229 14.1708 0.669071 15.2829 1.83903 15.2829H3.77933C5.28056 15.2829 6.33527 16.8074 5.84677 18.2714C5.40277 19.602 7.04204 20.6084 7.96469 19.5714L9.64857 17.679L10.8375 16.3477C11.4435 15.6691 12.2974 15.2829 13.1921 15.2829H18.9366C20.3093 15.2829 21.4954 14.2936 21.7823 12.9091L23.9564 2.41884C24.2145 1.17367 23.2939 0 22.0592 0H5.08743ZM3.95889 7.15398V8.47838H7.09939V5.38816H5.67677C5.67677 4.55072 6.2319 3.68163 7.12624 3.59269L6.61621 2.51663C4.92686 2.5798 3.95889 4.20655 3.95889 5.80204V7.15398ZM7.71821 7.15398V8.47838H10.8587V5.38816H9.43611C9.43611 4.55072 9.99129 3.68163 10.8856 3.59269L10.3756 2.51663C8.6862 2.5798 7.71821 4.20655 7.71821 5.80204V7.15398ZM19.089 6.62141V7.94581V9.29775C19.089 10.8932 18.121 12.52 16.4316 12.5832L15.9216 11.5071C16.8159 11.4182 17.3711 10.5491 17.3711 9.71163H15.9485V6.62141H19.089ZM15.3296 7.94581V6.62141H12.1892V9.71163H13.6118C13.6118 10.5491 13.0566 11.4182 12.1623 11.5071L12.6723 12.5832C14.3617 12.52 15.3296 10.8932 15.3296 9.29775V7.94581Z" fill="#00C07B"/>
</svg>
