<svg xmlns="http://www.w3.org/2000/svg" width="1267" height="633" viewBox="0 0 1267 633" fill="none">
  <path d="M1827.61 438.252L1807.3 493.032C1804.4 500.869 1705.92 763.78 1556.94 805.086C1405.72 847.004 1523.23 422.5 1300.93 440.934C1078.62 459.38 633.763 884.301 426.685 614.138C219.62 343.976 -191 451.804 -191 451.804L-159.667 367.317C-159.667 367.317 268.653 258.682 481.257 543.307C693.847 827.933 1117.33 392.129 1330.2 379.58C1543.07 367.044 1425.93 770.992 1577.14 731.04C1728.34 691.075 1823.86 426.575 1827.61 438.239V438.252Z" fill="white"/>
  <path d="M1913 207.951L1891.36 266.284C1876.39 219.576 1791.96 466.631 1640.76 500.725C1489.56 534.82 1605.6 192.485 1421.06 187.356C1236.5 182.24 877.117 650.602 647.94 322.626C418.802 -5.33606 -62.659 105.668 -62.659 105.668L-29.9345 17.4454C-29.9345 17.4454 469.2 -94.3531 703.889 248.085C938.578 590.511 1276.62 111.292 1451.72 122.292C1626.84 133.306 1511.15 455.084 1662.35 422.969C1813.55 390.84 1894.28 149.578 1913 207.951Z" fill="white"/>
  <path d="M1869.69 324.761L1847.94 383.42C1840.45 360.066 1748.64 618.747 1597.41 656.759C1446.22 694.772 1562.99 311.353 1359.55 318.018C1156.12 324.67 753.996 771.318 535.895 472.242C317.78 173.167 -128.254 282.583 -128.254 282.583L-95.4233 194.048C-95.4233 194.048 368.311 83.8372 591.95 397.363C815.59 710.875 1196.36 253.371 1390.35 252.602C1584.34 251.834 1467.91 614.698 1619.13 578.664C1770.35 542.617 1858.45 289.73 1869.69 324.761Z" fill="white"/>
</svg>