<svg xmlns="http://www.w3.org/2000/svg" width="1920" height="703" viewBox="0 0 1920 703" fill="none">
<path d="M1964.45 112.256L1998.01 199.656C1981.75 380.246 1712.27 374.876 1431.35 331.82C1150.43 288.774 779.101 786.827 571.298 673.486C363.486 560.124 33.1583 764.477 33.1583 764.477L7.40149 697.406C7.40149 697.406 339.383 497.377 556.677 627.917C773.972 758.458 1124.88 258.405 1409 304.351C1693.13 350.317 1964.93 342.592 1964.45 112.266V112.256Z" fill="white"/>
<path d="M1895.85 -66.3659L1930.34 23.4318C1947.54 303.482 1673.43 324.261 1386.1 275.416C1098.77 226.581 768.279 728.602 541.491 580.894C314.714 433.164 -18.9205 628.891 -18.9205 628.891L-45.5983 559.402C-45.5983 559.402 289.69 367.988 525.939 532.896C762.208 697.804 1072.28 193.794 1362.82 245.529C1653.38 297.274 1929.8 263.398 1895.85 -66.3659Z" fill="white"/>
<path d="M1826.21 -247.751L1861.13 -156.834C1911.81 222.676 1633.06 269.616 1339.31 214.972C1045.58 160.327 755.898 666.336 510.146 484.239C264.425 302.152 -72.5168 489.264 -72.5168 489.264L-99.6342 418.634C-99.6342 418.634 238.961 235.835 494.175 435.121C749.398 634.397 1018.66 126.42 1315.61 183.954C1612.57 241.457 1893.63 181.452 1826.22 -247.751H1826.21Z" fill="white"/>
<path d="M1688.65 -606L1720.76 -522.379C1838.37 56.0094 1550.37 155.26 1243.79 89.058C937.21 22.8561 729.199 536.769 445.529 285.926C161.869 35.0936 -181.688 204.974 -181.688 204.974L-206 141.672C-206 141.672 139.221 -23.8956 432.352 244.116C725.504 512.148 913.107 -3.76508 1222.89 65.3262C1532.66 134.438 1822.99 22.1128 1688.64 -606H1688.65Z" fill="white"/>
<path d="M1756 -430.602L1791.15 -339.057C1875.3 139.892 1591.93 212.983 1291.77 152.57C991.592 92.1462 742.773 602.103 478.067 385.648C213.351 169.172 -126.898 347.669 -126.898 347.669L-154.256 276.431C-154.256 276.431 187.647 102.248 461.835 335.881C736.023 569.535 964.443 57.6006 1267.83 120.913C1571.19 184.236 1856.88 98.0504 1756.01 -430.602H1756Z" fill="white"/>
</svg>