<svg xmlns="http://www.w3.org/2000/svg" width="1920" height="703" fill="none"><path fill="#fff" d="m1960.48 202.828 11.83 53.803c-392.27-70.709-1073.642 455.063-1422.284 721.21C201.371 1244-124.599 1103.76-124.599 1103.76l-23.495-106.769s281.697 86.839 587.362-64.07c28.586-14.125 58.439-30.79 88.645-51.313 197.659-135.419 502.917-376.78 793.467-513.256 238.03-111.781 475.52-181.706 639.1-165.524Z"/><path fill="#fff" d="m1936.75 95.018 11.84 53.815c-152.95-.958-396.16 52.82-638.94 147.282-287.82 112.004-601.93 366.861-803.907 489.02-30.99 18.737-61.474 32.459-89.869 43.719-296.558 117.474-587.513 61.164-587.513 61.164l-23.502-106.792s301.209 26.312 587.699-58.265c28.287-8.337 59.254-19.207 91.088-36.092C689.567 579.532 1013.5 312.183 1297.95 224.068c248.07-76.84 496.49-114.782 638.8-129.061v.01Z"/><path fill="#fff" d="m1914.37-6.661 10.92 49.6c-131.68 29.482-384.85 52.094-638.64 110.809-280.6 64.924-614.931 343.996-824.75 440.587-32.678 15.044-64.006 23.093-92.299 28.489-275.428 52.548-587.861 55.358-587.861 55.358l-22.57-102.541s324.458-30.653 588.045-52.449c28.374-2.339 59.979-7.707 93.512-20.896C654.353 418.355 999.55 128.454 1275.9 85.942c259.82-39.996 517.45-47.903 638.47-92.603Z"/></svg>