<svg xmlns="http://www.w3.org/2000/svg" width="100" height="100" viewBox="0 0 100 100" fill="none">
<path d="M50 2C56.3035 2 62.5452 3.24156 68.3688 5.65378C74.1924 8.06601 79.4839 11.6017 83.9411 16.0589C88.3983 20.5161 91.934 25.8076 94.3462 31.6312C96.7584 37.4548 98 43.6965 98 50C98 56.3035 96.7584 62.5452 94.3462 68.3688C91.934 74.1924 88.3983 79.4839 83.9411 83.9411C79.4839 88.3983 74.1924 91.934 68.3688 94.3462C62.5452 96.7584 56.3035 98 50 98C43.6965 98 37.4548 96.7584 31.6312 94.3462C25.8076 91.934 20.5161 88.3983 16.0589 83.9411C11.6017 79.4839 8.06601 74.1924 5.65378 68.3688C3.24156 62.5452 2 56.3035 2 50C2 43.6965 3.24156 37.4548 5.65378 31.6312C8.06601 25.8076 11.6017 20.5161 16.0589 16.0589C20.5161 11.6017 25.8076 8.06601 31.6312 5.65378C37.4548 3.24156 43.6965 2 50 2Z" stroke="#731EFF" stroke-width="4" stroke-linecap="round"/>
<path d="M50 2C56.3035 2 62.5452 3.24156 68.3688 5.65378C74.1924 8.06601 79.4839 11.6017 83.9411 16.0589C88.3983 20.5161 91.934 25.8076 94.3462 31.6312C96.7584 37.4548 98 43.6965 98 50C98 56.3035 96.7584 62.5452 94.3462 68.3688C91.934 74.1924 88.3983 79.4839 83.9411 83.9411C79.4839 88.3983 74.1924 91.934 68.3688 94.3462C62.5452 96.7584 56.3035 98 50 98C43.6965 98 37.4548 96.7584 31.6312 94.3462C25.8076 91.934 20.5161 88.3983 16.0589 83.9411C11.6017 79.4839 8.06601 74.1924 5.65378 68.3688C3.24156 62.5452 2 56.3035 2 50C2 43.6965 3.24156 37.4548 5.65378 31.6312C8.06601 25.8076 11.6017 20.5161 16.0589 16.0589C20.5161 11.6017 25.8076 8.06601 31.6312 5.65378C37.4548 3.24156 43.6965 2 50 2Z" stroke="#E4ECF8" stroke-width="4" stroke-linecap="round" stroke-dasharray="21.11 301.59"/>
</svg>