<svg xmlns="http://www.w3.org/2000/svg" width="64" height="64" viewBox="0 0 64 64" fill="none">
<path d="M56 26.6666H8M56 33.3333V23.4666C56 18.9862 56 16.746 55.1281 15.0347C54.3611 13.5294 53.1372 12.3056 51.6319 11.5386C49.9206 10.6666 47.6804 10.6666 43.2 10.6666H20.8C16.3196 10.6666 14.0794 10.6666 12.3681 11.5386C10.8628 12.3056 9.63893 13.5294 8.87195 15.0347C8 16.746 8 18.9862 8 23.4666V45.8666C8 50.3471 8 52.5873 8.87195 54.2986C9.63893 55.8039 10.8628 57.0277 12.3681 57.7947C14.0794 58.6666 16.3196 58.6666 20.8 58.6666H32M42.6667 5.33331V16M21.3333 5.33331V16M38.6667 50.6666L44 56L56 44" stroke="#E4ECF8" stroke-width="2" stroke-linecap="round" stroke-linejoin="round"/>
</svg>