<svg xmlns="http://www.w3.org/2000/svg" width="409" height="187" viewBox="0 0 409 187" fill="none">
<path d="M404.439 138.943C404.382 139.307 404.309 139.744 404.147 140.23C403.993 140.708 403.766 141.243 403.41 141.737C403.24 141.988 403.021 142.214 402.803 142.417C402.568 142.603 402.276 142.749 402.05 142.773C401.507 142.854 401.134 142.53 400.802 141.98C400.487 141.437 400.284 140.741 400.154 140.028C400.09 139.672 400.041 139.299 400.009 138.926C399.993 138.74 399.992 138.57 399.976 138.384L399.96 137.76C399.96 137.056 400.025 136.262 400.146 135.549C400.276 134.829 400.47 134.132 400.794 133.598C400.956 133.33 401.134 133.096 401.337 132.966C401.385 132.926 401.41 132.917 401.45 132.885C401.483 132.853 401.62 132.836 401.693 132.812C401.75 132.788 401.912 132.772 402.033 132.796C402.292 132.836 402.56 132.974 402.803 133.16C403.029 133.363 403.248 133.59 403.41 133.841C403.766 134.335 403.993 134.869 404.147 135.347C404.309 135.833 404.382 136.27 404.439 136.635C404.487 136.999 404.503 137.291 404.511 137.485C404.511 137.679 404.52 137.785 404.52 137.785C404.52 137.785 404.52 137.89 404.511 138.084C404.511 138.279 404.487 138.57 404.439 138.935V138.943Z" fill="#9CA5B3"/>
<path d="M284.254 138.74C284.351 138.643 284.464 138.579 284.602 138.562C284.65 138.562 284.642 138.554 284.731 138.546H284.991L285.517 138.514C286.91 138.441 288.287 138.368 289.647 138.303C295.081 138.028 300.224 137.696 304.961 137.372C309.707 137.056 314.048 136.764 317.903 136.505C321.758 136.238 325.118 136.036 327.88 135.882C333.411 135.59 336.578 135.428 336.578 135.428C336.578 135.428 339.744 135.428 345.284 135.428C348.053 135.428 351.422 135.428 355.277 135.477C359.14 135.525 363.489 135.574 368.243 135.631C369.433 135.647 370.64 135.663 371.879 135.679C372.494 135.687 373.118 135.695 373.75 135.704C374.057 135.704 374.406 135.704 374.673 135.72C374.859 135.728 374.908 135.744 375.045 135.785C375.167 135.817 375.28 135.874 375.385 135.938C375.815 136.198 376.082 136.708 376.066 137.202C376.066 137.323 376.041 137.453 376.009 137.566L375.871 138.036C375.774 138.344 375.677 138.651 375.572 138.967C375.159 140.206 374.689 141.453 374.146 142.684C373.596 143.915 373.053 145.163 372.219 146.167C371.393 147.195 370.332 148.054 369.133 148.661C367.927 149.268 366.591 149.617 365.206 149.665C363.748 149.73 362.274 149.795 360.792 149.86C354.856 150.127 348.725 150.394 342.498 150.678C339.388 150.799 336.221 150.993 333.112 151.058C329.961 151.115 326.787 151.18 323.62 151.244C317.287 151.358 310.954 151.463 304.718 151.577C303.164 151.601 301.609 151.633 300.062 151.658C299.697 151.658 299.252 151.682 298.944 151.674C298.531 151.674 298.24 151.649 297.891 151.609C297.195 151.536 296.515 151.39 295.859 151.18C294.539 150.759 293.308 150.078 292.263 149.204C291.753 148.774 291.251 148.264 290.716 147.714C290.206 147.187 289.712 146.661 289.226 146.118C288.246 145.041 287.323 143.932 286.456 142.798C286.019 142.231 285.598 141.656 285.193 141.081L284.594 140.206L284.302 139.769L284.173 139.567C284.173 139.567 284.173 139.55 284.173 139.558L284.14 139.502C284.14 139.502 284.092 139.413 284.084 139.396C284.092 139.38 284.084 139.396 284.084 139.372C284.084 139.34 284.059 139.315 284.067 139.283C284.059 139.218 284.067 139.153 284.067 139.089C284.084 138.959 284.165 138.83 284.262 138.732L284.254 138.74Z" fill="#9CA5B3"/>
<path d="M333.335 164.656C343.555 164.218 353.767 163.773 363.348 163.368C364.482 163.319 365.599 163.271 366.717 163.222C366.684 163.246 366.66 163.279 366.636 163.303C365.591 164.202 364.457 165.012 363.259 165.7L363.413 165.635C363.34 165.66 363.259 165.7 363.202 165.733L363.137 165.765L363.008 165.838L362.74 165.976L362.198 166.243C361.833 166.413 361.453 166.583 361.072 166.737C360.311 167.053 359.533 167.328 358.748 167.579C357.962 167.822 357.161 168.033 356.351 168.195C355.541 168.365 354.723 168.47 353.897 168.551L352.658 168.616C352.245 168.608 351.824 168.616 351.419 168.591C350.99 168.567 350.601 168.527 350.18 168.47C349.767 168.413 349.362 168.332 348.957 168.235C347.337 167.854 345.815 167.045 344.511 165.935C345.661 167.19 347.119 168.227 348.771 168.834C349.184 168.988 349.597 169.126 350.026 169.239C350.439 169.353 350.892 169.458 351.305 169.531C351.743 169.604 352.172 169.652 352.617 169.717L353.937 169.814C354.82 169.839 355.703 169.83 356.578 169.758C357.46 169.693 358.335 169.571 359.201 169.417C360.068 169.255 360.934 169.069 361.793 168.826C362.222 168.705 362.643 168.583 363.072 168.438L363.712 168.219L364.214 168.033L364.255 168.016L364.368 167.968C365.794 167.368 367.17 166.623 368.474 165.757C369.122 165.32 369.762 164.858 370.369 164.364C370.677 164.113 370.968 163.87 371.276 163.595L371.714 163.198L371.908 163.02C373.69 162.947 375.447 162.866 377.164 162.793C379.358 162.696 381.496 162.607 383.562 162.518L384.331 162.485L384.712 162.469L385.157 162.437C385.667 162.396 386.161 162.356 386.663 162.307C387.659 162.226 388.631 162.145 389.587 162.064C390.542 161.983 391.474 161.902 392.389 161.829C392.842 161.789 393.296 161.756 393.741 161.716C393.968 161.7 394.187 161.675 394.405 161.659L394.786 161.627L395.118 161.586C395.677 161.521 396.211 161.457 396.754 161.392C394.146 166.551 388.72 174.965 379.188 178.196C375.463 179.459 372.313 179.516 366.263 179.63C358.076 179.783 351.718 179.905 344.956 176.755C342.162 175.451 336.396 172.228 331.416 164.761C332.055 164.737 332.695 164.704 333.335 164.68V164.656Z" fill="#9CA5B3"/>
<path d="M6.67774 71.0862C6.59676 71.1105 6.53196 71.1429 6.46717 71.1753C6.37809 71.1915 6.29712 71.2077 6.22423 71.232C5.876 71.2806 5.4225 71.2482 4.97709 71.151C4.59646 71.0781 4.20771 70.9404 3.84328 70.8109C4.8151 66.7859 6.04607 62.3237 8.61328 58.1206C8.61328 58.1206 8.4918 59.5216 8.30554 61.611C8.21645 62.6557 8.10306 63.8786 7.98969 65.1906C7.933 65.8141 7.84394 66.5025 7.76295 67.1747C7.67387 67.8468 7.57669 68.5352 7.45521 69.1912C7.33373 69.831 7.17173 70.5112 6.96927 70.8514C6.92068 70.9242 6.87211 70.9809 6.83161 71.0052C6.80732 71.0295 6.79924 71.0133 6.79924 71.0052C6.81543 70.989 6.75062 71.0457 6.72633 71.0619L6.67774 71.1024H6.66158V71.1186C6.65348 71.1267 6.74255 71.0457 6.70206 71.0862H6.68585H6.67774Z" fill="#9CA5B3"/>
<path d="M228.423 139.04C228.593 138.57 228.877 138.012 229.298 137.461C229.711 136.91 230.286 136.352 231.023 135.963C231.379 135.76 231.784 135.623 232.197 135.509C232.618 135.436 233.048 135.396 233.477 135.461C233.679 135.485 233.93 135.542 234.076 135.59L234.441 135.712C234.57 135.752 234.627 135.809 234.716 135.849C235.056 136.028 235.429 136.311 235.72 136.627C236.02 136.943 236.279 137.299 236.473 137.712C236.676 138.109 236.846 138.538 236.951 138.992C237.186 139.882 237.218 140.846 237.097 141.786C237.064 141.923 237.016 142.385 236.959 142.523L236.886 142.83L236.781 143.162C236.635 143.608 236.449 144.037 236.222 144.434C235.995 144.839 235.736 145.211 235.429 145.535C235.137 145.875 234.789 146.159 234.416 146.385C233.671 146.847 232.829 147.058 231.922 146.92C231.541 146.888 231.104 146.726 230.723 146.547C230.359 146.337 230.003 146.102 229.711 145.81C229.104 145.252 228.691 144.563 228.44 143.924C228.18 143.276 228.051 142.676 228.01 142.174C227.954 141.672 227.97 141.275 227.994 141C228.018 140.733 228.027 140.587 228.027 140.587C228.027 140.587 228.051 140.441 228.099 140.182C228.148 139.915 228.237 139.526 228.415 139.056L228.423 139.04Z" fill="#9CA5B3"/>
<path d="M376.916 98.0539C377.636 98.8233 378.665 99.9894 379.734 101.65C379.864 101.86 380.001 102.079 380.139 102.306C380.268 102.524 380.398 102.751 380.536 102.986C380.803 103.464 381.062 103.974 381.321 104.508C381.564 105.019 381.864 105.707 381.977 106.063C382.107 106.492 382.172 106.962 382.147 107.432C382.139 107.667 382.099 107.902 382.042 108.136L382.018 108.226C382.018 108.226 382.01 108.266 382.018 108.258L381.993 108.331L381.912 108.59L381.75 109.084C381.516 109.748 381.232 110.42 380.892 111.084L380.625 111.578L380.487 111.829L380.414 111.951L380.39 111.983L380.366 112.024L380.017 112.558L379.742 112.931C379.305 113.49 378.786 114.008 378.187 114.469C377.005 115.385 375.507 116.049 373.871 116.284C373.45 116.34 373.085 116.373 372.591 116.389C372.081 116.405 371.571 116.421 371.052 116.437C370.016 116.47 368.971 116.502 367.91 116.535C363.659 116.664 359.172 116.802 354.532 116.939C345.251 117.223 335.354 117.523 325.458 117.83C315.562 118.13 305.666 118.438 296.385 118.721C294.069 118.794 291.785 118.859 289.55 118.932C288.432 118.964 287.331 118.997 286.237 119.029C285.152 119.045 284.051 119.126 283.055 119.086C281.038 118.972 279.111 118.284 277.548 117.182C277.159 116.907 276.787 116.607 276.438 116.292C276.09 115.951 275.75 115.611 275.418 115.271C274.738 114.591 274.074 113.927 273.418 113.271L272.948 112.761L272.729 112.526L272.511 112.267C272.357 112.089 272.268 111.927 272.146 111.756C272.049 111.57 271.927 111.392 271.855 111.206C271.506 110.453 271.328 109.627 271.352 108.825C271.369 108.023 271.555 107.246 271.895 106.557C272.227 105.861 272.713 105.31 273.231 104.743C275.224 102.492 277.143 100.694 278.771 99.2768C280.407 97.8596 281.759 96.831 282.69 96.1427C282.771 96.086 282.844 96.0293 282.917 95.9726C283.241 96.0536 283.565 96.1265 283.889 96.2075C284.083 96.2561 284.278 96.2399 284.448 96.1913H284.48L290.303 94.3205C304.005 94.2072 317.708 94.2234 331.411 94.3934L336.569 94.4582C338.286 94.4906 340.011 94.4987 341.728 94.5473L352.037 94.7983L372.227 95.2924L375.806 96.8311L375.733 96.9039C375.733 96.9039 375.839 97.0092 376.057 97.2117C376.235 97.3817 376.535 97.6814 376.9 98.062L376.916 98.0539Z" fill="#9CA5B3"/>
<path d="M2.62913 112.817C3.26891 108.801 2.67772 105.731 2.38617 103.958C1.22 96.7259 0.985178 84.8778 3.06648 74.3094C3.56858 74.3822 4.10305 74.4551 4.71043 74.447C5.45549 74.447 6.28964 74.3742 7.18857 74.0097C7.41532 73.9044 7.63399 73.7911 7.85265 73.6696C8.06321 73.5157 8.26566 73.3537 8.46002 73.1837L8.50051 73.1513L8.54911 73.1027L8.55719 73.0865L8.59768 73.0379L8.70298 72.9164C8.81636 72.7868 8.92162 72.6411 8.9945 72.5277C9.15647 72.2766 9.25367 72.0175 9.33466 71.7826C9.61 70.8351 9.57764 70.1063 9.59383 69.3612C9.59383 68.6243 9.55331 67.9197 9.50472 67.2151C9.45612 66.5106 9.41563 65.8546 9.35084 65.1662C9.21317 63.8624 9.08363 62.6395 8.97835 61.5948C8.75969 59.5054 8.6139 58.1125 8.6139 58.1125C9.70719 56.3308 11.0272 54.5977 12.6874 52.9538C13.8941 51.7633 15.3356 51.0587 17.263 50.1112C17.3521 50.0788 17.4412 50.0545 17.5384 50.0302C18.2997 49.8116 19.0447 49.5929 19.8546 49.3985C20.6563 49.1961 21.4742 49.0179 22.3003 48.8559C25.5963 48.2081 28.9815 47.9408 31.5325 47.9246C32.804 47.9165 33.8729 47.9408 34.618 47.9813C35.3631 48.0218 35.7923 48.0461 35.7923 48.0461C35.7923 48.0461 35.3712 47.9651 34.6342 47.8274C33.8972 47.6979 32.8364 47.5197 31.5649 47.3658C29.2245 47.0743 26.1227 46.8961 22.9563 47.0338C23.5717 46.6532 24.2196 46.2401 24.908 45.7704C28.2931 43.4705 30.6093 41.5592 31.6135 40.7413C37.7278 35.7689 50.9283 26.156 60.2172 20.7543C76.657 11.1982 92.4085 8.09646 107.739 5.07574C115.449 3.56133 121.166 2.87296 126.892 2.20079C134.512 1.30996 150.272 -0.293531 188.173 0.046604C209.779 0.240967 229.831 0.986029 250.174 4.12013C255.309 4.91378 262.063 6.09615 270.283 9.14926C280.317 12.8745 287.055 17.3368 295.898 23.2729C303.082 28.0996 312.427 34.9266 322.712 44.1022C323.093 43.6405 323.716 42.9765 324.623 42.4258C326.956 41.0167 329.474 41.3244 332.285 41.705C335.313 42.118 336.828 42.3205 337.791 43.1384C340.172 45.1711 340.18 49.9006 338.148 54.865C343.72 55.1646 377.117 57.3269 391.541 75.3379C391.314 75.5241 391.087 75.7104 390.844 75.921C390.415 76.2773 390.026 76.6336 389.63 76.9899C388.844 77.7026 388.083 78.4315 387.338 79.1684C385.848 80.6504 384.422 82.1729 383.046 83.7521C381.669 85.3313 380.357 86.951 379.102 88.6355C378.478 89.4777 377.871 90.3362 377.271 91.2189C377.15 91.3971 377.045 91.5752 376.931 91.7453C376.931 91.6805 376.931 91.6238 376.931 91.5428C376.931 91.1136 376.931 90.4658 376.866 89.6559C376.761 88.0281 376.47 85.6958 375.733 82.9666C374.988 80.2455 373.773 77.1114 371.926 74.034C371.7 73.6453 371.473 73.2566 371.214 72.884L370.833 72.309L370.647 72.0175L370.404 71.6855C369.877 70.9809 369.343 70.2601 368.792 69.5556C368.541 69.1992 368.185 68.8348 367.869 68.4785L366.881 67.3933C366.225 66.6482 365.512 66.0165 364.808 65.3687L363.739 64.405C363.366 64.0972 362.986 63.8138 362.605 63.5222C361.852 62.9391 361.099 62.3479 360.297 61.8539C358.742 60.793 357.106 59.9103 355.511 59.1167C354.693 58.7522 353.915 58.3635 353.114 58.0558C352.312 57.7561 351.535 57.4484 350.765 57.1892C349.988 56.9544 349.235 56.7276 348.506 56.5009C347.769 56.3227 347.048 56.1526 346.368 55.9907C345.679 55.853 345.015 55.7315 344.384 55.6262C343.752 55.5291 343.145 55.4643 342.578 55.3914C341.444 55.2537 340.456 55.2051 339.638 55.1889C338.828 55.1484 338.18 55.1889 337.751 55.197C337.314 55.2213 337.087 55.2375 337.087 55.2375C337.087 55.2375 337.962 55.5291 339.492 56.0393C340.253 56.2903 341.16 56.6305 342.197 57.003C343.234 57.3917 344.375 57.8695 345.615 58.3797C346.23 58.6551 346.862 58.9385 347.526 59.2301C348.174 59.5459 348.846 59.8617 349.526 60.2019C350.198 60.5582 350.887 60.9226 351.599 61.2871C352.288 61.6839 352.992 62.0888 353.705 62.5018C354.418 62.9148 355.098 63.3926 355.819 63.8381C356.175 64.0567 356.531 64.2997 356.863 64.5588C357.212 64.8018 357.56 65.0528 357.908 65.3039C358.621 65.7736 359.269 66.3567 359.949 66.8831C360.289 67.1584 360.629 67.4176 360.961 67.6929L361.917 68.5757C362.565 69.1506 363.229 69.7256 363.779 70.3411C364.071 70.6489 364.362 70.9485 364.654 71.24C364.946 71.5397 365.245 71.8069 365.537 72.1795C366.112 72.8759 366.695 73.5481 367.27 74.2203L367.375 74.3417L367.432 74.4065L367.456 74.4389L367.464 74.447L367.618 74.6495L367.999 75.1435C368.258 75.4674 368.509 75.7995 368.744 76.1315C369.707 77.4516 370.582 78.7797 371.351 80.0836C372.129 81.3874 372.825 82.6508 373.408 83.8493C374 85.0479 374.534 86.1655 374.955 87.1859C375.376 88.2063 375.749 89.0971 376.032 89.8503C376.413 90.8626 376.672 91.5671 376.81 91.9397C376.737 92.0612 376.656 92.1745 376.583 92.296L373.57 91.0893L373.506 91.065C373.271 90.9679 373.02 90.9274 372.777 90.9274H352.101L341.768 90.9112C340.043 90.9112 338.326 90.9355 336.601 90.9436L331.434 91.0003C317.659 91.1622 303.883 91.47 290.116 91.9235H290.084C289.97 91.9235 289.857 91.9478 289.76 91.9883L284.083 93.9481C276.543 92.3284 268.995 90.7735 261.472 89.0971L238.585 83.9465C235.063 83.161 231.532 82.424 227.968 81.8004C227.572 81.4279 227.086 80.9906 226.543 80.5047C225.652 79.711 224.543 78.7635 223.247 77.7269C221.951 76.6903 220.461 75.5484 218.777 74.3822C215.432 72.0337 211.35 69.5637 206.759 67.3933C204.459 66.2838 202.086 65.312 199.519 64.3807C198.288 63.9676 197.073 63.5384 195.809 63.1335C194.506 62.761 193.194 62.3965 191.89 62.024C190.578 61.7244 189.274 61.4328 187.97 61.1332C186.658 60.8821 185.346 60.6716 184.051 60.4448C182.747 60.2586 181.451 60.1128 180.171 59.9508C178.892 59.8455 177.62 59.7484 176.381 59.6431C175.134 59.6026 173.911 59.554 172.713 59.5135C171.514 59.5216 170.34 59.5297 169.206 59.5459C168.064 59.6026 166.963 59.635 165.894 59.7079C164.825 59.7969 163.796 59.8617 162.808 59.967C160.84 60.1776 159.043 60.4286 157.455 60.6878C155.868 60.955 154.499 61.2304 153.374 61.4652C152.248 61.7244 151.373 61.9187 150.774 62.0807C150.175 62.2346 149.859 62.3156 149.859 62.3156C149.859 62.3156 150.183 62.2589 150.79 62.1617C151.398 62.0564 152.288 61.9349 153.422 61.773C154.564 61.6353 155.941 61.4733 157.536 61.3438C159.124 61.2223 160.921 61.1251 162.873 61.0846C163.853 61.0603 164.873 61.0846 165.926 61.0846C166.979 61.1089 168.064 61.1656 169.182 61.2061C170.291 61.2951 171.441 61.3842 172.607 61.4733C173.766 61.611 174.956 61.7568 176.163 61.9025C177.361 62.105 178.576 62.3075 179.807 62.5099C181.03 62.7772 182.261 63.0201 183.5 63.3036C184.723 63.6275 185.962 63.9595 187.201 64.2835C188.424 64.6722 189.647 65.0609 190.869 65.4497C192.052 65.8951 193.234 66.3405 194.417 66.7859C195.607 67.2799 196.806 67.8225 197.988 68.3408C200.199 69.3612 202.45 70.5193 204.491 71.7259C208.613 74.1231 212.209 76.7551 215.116 79.1846C215.489 79.4924 215.845 79.8001 216.193 80.0997C215.942 80.0754 215.691 80.0431 215.432 80.0107C207.649 79.1684 199.818 78.7878 191.995 78.8121C199.81 78.9741 207.617 79.5409 215.359 80.5695C219.23 81.0797 223.085 81.7032 226.916 82.4483C230.746 83.1934 234.544 84.0842 238.334 85.0236L254.564 89.089C254.41 89.251 254.248 89.413 254.07 89.5749C253.738 89.8908 253.357 90.1742 252.944 90.4496C252.539 90.7249 252.029 90.9921 251.648 91.146C250.855 91.5024 249.032 91.7534 247.081 91.9316C245.242 92.1097 243.202 92.215 241.096 92.2069C238.974 92.2069 236.731 92.1178 234.423 91.9883C233.289 91.9154 232.147 91.8506 230.997 91.7777C229.815 91.6886 228.624 91.5914 227.442 91.5024C225.085 91.3161 222.729 91.1379 220.413 90.9598C218.08 90.7006 215.796 90.4577 213.626 90.1742C211.456 89.8827 209.407 89.5668 207.617 88.9756C205.787 88.3845 204.11 87.5665 202.636 86.6757C199.672 84.894 197.526 82.8289 196.109 81.3388C195.405 80.5775 194.87 79.9702 194.522 79.5329C194.165 79.1036 193.979 78.8769 193.979 78.8769C193.979 78.8769 194.133 79.136 194.408 79.6138C194.684 80.0998 195.121 80.7962 195.704 81.6708C196.887 83.3958 198.701 85.8334 201.527 88.2306C202.936 89.4211 204.596 90.5953 206.524 91.5914C208.492 92.6037 210.646 93.3002 212.816 93.9562C214.995 94.6041 217.222 95.2195 219.481 95.8431C221.773 96.4019 224.105 96.9688 226.438 97.5276C227.596 97.811 228.746 98.0864 229.904 98.3698C231.094 98.6371 232.285 98.9043 233.459 99.1716C235.783 99.6818 238.1 100.151 240.416 100.532C242.74 100.913 244.999 101.172 247.243 101.318C247.777 101.35 248.312 101.382 248.83 101.407C249.365 101.431 249.907 101.447 250.458 101.447C251.559 101.447 252.774 101.407 254.102 101.164C255.455 100.905 256.54 100.54 257.593 100.111C258.637 99.6818 259.593 99.1878 260.443 98.6614C262.152 97.6167 263.432 96.4829 264.411 95.5192C265.391 94.5393 266.055 93.7294 266.517 93.1382C266.922 92.6118 267.133 92.3284 267.133 92.3284L266.784 92.1016C272.154 93.3974 277.531 94.6689 282.9 95.9484C282.835 95.997 282.771 96.0375 282.698 96.0861C281.742 96.7421 280.349 97.7301 278.665 99.0987C276.988 100.467 274.996 102.217 272.923 104.419C272.405 104.938 271.822 105.553 271.441 106.306C271.044 107.043 270.817 107.902 270.769 108.793C270.712 109.683 270.882 110.607 271.247 111.473C271.327 111.692 271.457 111.894 271.562 112.113C271.692 112.315 271.83 112.55 271.967 112.72L272.178 112.988C272.275 113.109 272.332 113.174 272.413 113.263L272.866 113.789C273.506 114.47 274.154 115.166 274.818 115.871C275.15 116.227 275.49 116.583 275.83 116.948C276.195 117.304 276.591 117.644 277.005 117.96C278.681 119.215 280.762 120.041 282.997 120.244C284.131 120.333 285.184 120.284 286.277 120.3C287.371 120.3 288.472 120.3 289.59 120.3C291.825 120.3 294.108 120.3 296.425 120.309C305.705 120.317 315.61 120.333 325.514 120.341C335.419 120.349 345.315 120.365 354.604 120.373C359.244 120.373 363.731 120.381 367.991 120.39C369.051 120.39 370.104 120.39 371.141 120.39C371.659 120.39 372.169 120.39 372.68 120.39C373.206 120.39 373.846 120.365 374.421 120.3C376.761 120.041 378.948 119.159 380.746 117.871C381.645 117.223 382.446 116.478 383.135 115.66C383.313 115.433 383.491 115.207 383.661 114.98L384.042 114.429L384.171 114.227L384.268 114.073L384.455 113.765C384.576 113.554 384.69 113.352 384.811 113.141C385.265 112.315 385.653 111.473 385.977 110.639C386.058 110.428 386.131 110.218 386.212 110.007L386.317 109.708L386.431 109.335C386.576 108.817 386.674 108.299 386.722 107.78C386.811 106.744 386.714 105.739 386.463 104.816C386.18 103.82 385.912 103.261 385.629 102.581C385.346 101.933 385.054 101.318 384.754 100.735C384.6 100.443 384.447 100.16 384.301 99.8842C384.147 99.617 384.001 99.3578 383.855 99.1068C383.086 97.8353 382.333 96.7906 381.677 95.9484C381.863 96.078 382.041 96.2075 382.244 96.3452C382.875 96.742 383.556 97.147 384.382 97.4709C385.184 97.803 386.131 98.0621 387.168 98.0783C387.427 98.0783 387.678 98.0945 387.945 98.0459L388.334 97.9892L388.812 97.9082L389.111 97.8029C389.273 97.7463 389.476 97.6815 389.589 97.6167C389.832 97.5033 390.043 97.3737 390.245 97.2523C390.998 96.7421 391.533 96.2157 392.051 95.6974C392.561 95.1791 393.031 94.6769 393.476 94.1829C393.914 93.6889 394.343 93.2111 394.748 92.7657C395.177 92.296 395.517 91.8668 395.865 91.47C397.234 89.8665 398.141 88.7975 398.141 88.7975C398.141 88.7975 396.942 89.5263 395.137 90.6115C394.691 90.8788 394.189 91.1946 393.687 91.47C393.169 91.7696 392.618 92.0855 392.051 92.4094C391.484 92.7333 390.901 93.0492 390.31 93.3488C389.727 93.6403 389.128 93.9157 388.65 94.0291C388.536 94.0534 388.431 94.0696 388.35 94.0696C388.301 94.0696 388.334 94.0372 388.334 94.0372C388.358 94.0372 388.301 94.0372 388.253 94.0372H388.123H388.107H388.099C388.099 94.0372 388.293 94.0048 388.196 94.021H388.18L388.148 94.0048L388.083 93.9805L387.961 93.9481C387.888 93.94 387.799 93.8833 387.718 93.8428C387.403 93.697 387.079 93.4622 386.747 93.1544C386.423 92.871 386.115 92.4985 385.831 92.134C385.548 91.7534 385.289 91.3809 385.062 91.0084C384.746 90.4981 384.495 90.0203 384.301 89.6235C385.062 88.7084 385.84 87.8014 386.641 86.9105C387.969 85.4447 389.354 84.0275 390.78 82.6751C391.492 81.9948 392.221 81.3388 392.95 80.699C393.322 80.3832 393.687 80.0593 394.051 79.7758C394.173 79.6705 394.319 79.5653 394.456 79.4519C395.833 81.6061 397.493 84.4486 399.097 87.6637C402.822 95.1224 404.83 102.16 406.037 107.813C406.037 107.845 405.826 108.728 405.357 110.21C404.879 111.716 404.069 113.83 402.765 116.146C402.433 116.729 402.069 117.312 401.672 117.911C401.47 118.203 401.267 118.494 401.065 118.794C400.838 119.094 400.611 119.41 400.376 119.717C399.461 120.892 398.36 122.074 397.169 123.2C395.963 124.317 394.602 125.338 393.161 126.285C392.432 126.755 391.703 127.184 390.917 127.597C390.116 128.01 389.233 128.52 388.463 129.087C386.909 130.262 385.564 131.711 384.56 133.355C384.042 134.181 383.653 135.056 383.321 135.866C382.981 136.692 382.665 137.518 382.373 138.336C382.09 139.17 381.807 139.931 381.596 140.798C381.393 141.591 381.199 142.369 381.005 143.122C380.551 144.701 380.503 146.329 380.681 147.738C380.859 149.171 381.296 150.402 381.815 151.447C382.333 152.443 382.827 153.261 383.216 153.966C384.009 155.35 384.479 156.128 384.479 156.128C384.479 156.128 384.171 155.27 383.596 153.779C383.305 153.042 382.956 152.144 382.56 151.115C382.211 150.119 381.952 148.928 381.912 147.641C381.879 146.345 382.049 144.968 382.543 143.575C382.786 142.83 383.037 142.069 383.297 141.292C383.531 140.571 383.839 139.769 384.147 139.008C384.455 138.23 384.795 137.453 385.159 136.676C385.532 135.882 385.896 135.145 386.334 134.457C387.216 133.055 388.399 131.816 389.759 130.82C390.448 130.302 391.128 129.889 391.93 129.468C392.739 129.031 393.557 128.537 394.319 128.026C395.865 127.014 397.25 125.807 398.497 124.568C399.753 123.321 400.797 122.001 401.712 120.641C401.923 120.309 402.134 119.985 402.336 119.669C402.539 119.329 402.741 118.997 402.919 118.665C403.275 118 403.599 117.344 403.883 116.713C405.025 114.162 405.535 111.894 405.794 110.315C405.924 109.521 405.972 108.898 406.013 108.469C406.037 108.064 406.053 107.845 406.061 107.821C406.742 111.012 407.171 113.773 407.495 115.911C408.199 120.519 408.41 123.815 408.45 124.528C408.88 131.703 408.288 136.967 407.73 141.761C406.636 151.131 405.381 153.18 404.855 153.974C404.207 154.946 403.486 155.772 402.741 156.5C401.737 156.687 400.676 156.873 399.558 157.059C398.036 157.31 396.416 157.561 394.699 157.804L394.375 157.853L394.092 157.885C393.873 157.91 393.655 157.934 393.428 157.958C392.982 158.007 392.529 158.055 392.075 158.112C391.16 158.209 390.229 158.315 389.281 158.42C388.326 158.525 387.354 158.63 386.366 158.744C385.872 158.8 385.37 158.857 384.868 158.914L384.681 158.938H384.6L384.552 158.954L384.171 158.979L383.402 159.035C381.337 159.181 379.207 159.327 377.02 159.481C372.639 159.788 368.015 160.104 363.237 160.436C353.673 161.1 343.468 161.805 333.273 162.518C311.957 164 290.642 165.474 275.142 166.551C265.165 166.996 255.187 167.441 245.21 167.887L241.298 167.733C237.84 167.587 234.382 167.498 230.932 167.385C227.474 167.263 224.016 167.199 220.566 167.101C217.149 167.012 213.723 166.931 210.306 166.875C209.99 166.834 209.423 166.583 208.929 166.283C208.411 165.976 207.892 165.603 207.39 165.198C206.394 164.388 205.455 163.473 204.653 162.493C204.256 162.007 203.892 161.497 203.641 161.019C203.519 160.785 203.414 160.55 203.373 160.388L203.349 160.274L203.301 160.015L203.211 159.505L202.458 155.391C201.406 149.925 200.256 144.466 198.838 139.073C198.142 136.376 197.397 133.679 196.603 131.007C196.457 130.537 196.32 130.059 196.174 129.589C195.639 127.338 194.975 125.192 194.206 123.192C193.947 122.527 193.671 121.888 193.388 121.256C191.663 116.583 189.728 111.975 187.371 107.521C186.035 105.027 184.545 102.589 182.836 100.281C181.119 97.9811 179.175 95.7864 176.811 93.9724C175.628 93.0654 174.332 92.2798 172.923 91.6805C171.595 91.1055 170.113 90.6277 168.607 90.401C167.084 90.1661 165.562 90.1823 163.983 90.49L163.472 90.6034C163.294 90.6439 163.084 90.7087 162.897 90.7573C162.509 90.8707 162.16 90.9922 161.796 91.1298C161.083 91.4052 160.395 91.7453 159.755 92.1421C157.164 93.7213 155.212 95.9808 153.625 98.3536C152.037 100.743 150.831 103.31 149.81 105.926C148.79 108.541 147.988 111.222 147.34 113.935C146.676 116.64 146.19 119.385 145.85 122.139C146.458 119.434 147.251 116.778 148.11 114.154C148.984 111.538 149.98 108.971 151.138 106.484C152.305 104.006 153.649 101.634 155.236 99.4793C156.832 97.3413 158.735 95.422 160.962 94.2315C161.521 93.9319 162.088 93.6727 162.671 93.4703C162.954 93.365 163.27 93.2759 163.545 93.203C163.691 93.1706 163.813 93.1382 163.974 93.1058L164.485 93.0087C165.643 92.8386 166.922 92.8548 168.129 93.0977C169.36 93.3326 170.526 93.7537 171.717 94.3287C172.842 94.8632 173.895 95.5678 174.899 96.3695C176.9 97.9811 178.633 100.006 180.171 102.184C181.613 104.225 182.884 106.412 184.059 108.655C183.119 107.918 182.188 107.302 181.289 106.808C179.046 105.561 177.062 105.075 175.725 104.857C175.385 104.808 175.086 104.768 174.826 104.727C174.567 104.711 174.349 104.695 174.17 104.687C173.822 104.662 173.636 104.654 173.636 104.654C173.636 104.654 173.458 104.654 173.101 104.654C172.923 104.654 172.705 104.654 172.445 104.654C172.186 104.67 171.887 104.695 171.547 104.719C170.194 104.849 168.178 105.213 165.878 106.339C163.578 107.456 161.027 109.327 158.678 112.024C156.321 114.712 154.224 118.219 152.556 122.301C150.904 126.399 149.746 131.088 149.243 136.157C148.766 141.203 148.911 146.653 150.069 152.144C151.236 157.618 153.357 163.206 157.026 168.041C158.856 170.446 161.083 172.665 163.788 174.309C165.133 175.135 166.59 175.823 168.121 176.317C168.89 176.568 169.66 176.755 170.478 176.909C170.891 176.973 171.336 177.046 171.725 177.087L172.818 177.168H174.106C174.511 177.143 174.915 177.095 175.32 177.062C176.122 176.965 176.924 176.828 177.709 176.625C179.272 176.228 180.771 175.613 182.164 174.852C184.966 173.337 187.274 171.175 189.185 168.826C191.08 166.453 192.594 163.87 193.777 161.198C194.943 158.517 195.809 155.772 196.417 153.034C196.846 151.091 197.138 149.155 197.324 147.236C198.037 150.151 198.725 153.067 199.348 155.998L200.191 160.048L200.296 160.558L200.345 160.809L200.442 161.198C200.596 161.708 200.798 162.097 201.009 162.461C201.438 163.19 201.916 163.789 202.41 164.364C203.414 165.498 204.499 166.478 205.69 167.369C206.289 167.814 206.912 168.227 207.601 168.6C208.305 168.956 209.002 169.328 210.071 169.45C210.111 169.45 210.152 169.45 210.192 169.45C212.97 169.409 215.748 169.345 218.526 169.272C217.222 172.114 211.01 182.262 200.199 185.801C197.194 186.781 195.113 187.015 192.781 186.999C190.942 186.983 186.14 186.999 186.14 186.999H176.179C173.118 186.999 170.081 186.44 167.222 185.347L167.165 185.323C152.475 179.686 146.676 163.902 145.137 159.23C122.632 157.642 100.134 156.063 77.6288 154.476V154.322C77.6288 154.322 77.4669 154.322 77.2806 154.29C77.0619 154.257 76.7299 154.217 76.3007 154.16C75.3127 154.014 73.855 153.796 72.0085 153.52C68.2994 152.937 62.9949 152.095 56.6296 151.091L56.3299 151.042L56.1761 151.018C56.1761 151.018 56.2004 151.018 56.2085 151.018H56.168L56.0951 150.994C55.9088 150.953 55.6578 150.913 55.5282 150.872C55.2691 150.807 54.9532 150.71 54.6455 150.581C54.03 150.329 53.4388 149.981 52.8962 149.544C51.8191 148.669 50.9688 147.422 50.5801 145.972C49.673 142.425 48.6526 138.611 47.535 134.732C45.2918 126.957 42.6517 118.721 39.3961 110.696C37.7521 106.695 35.9623 102.735 33.8486 99.0015C32.7877 97.1389 31.654 95.3329 30.3825 93.6323C29.0949 91.9478 27.6695 90.3605 25.9608 89.1052C25.5153 88.8137 25.0699 88.5221 24.6083 88.2549C24.1224 88.0362 23.6365 87.769 23.1587 87.6151C22.1707 87.2588 21.1017 87.0563 20.0327 87.1211C19.4982 87.1616 18.9799 87.2345 18.4697 87.4288C18.2429 87.5179 18.0243 87.5584 17.7813 87.688L17.0606 88.0605C16.194 88.6193 15.449 89.2915 14.8497 90.0527C13.6349 91.559 12.8575 93.2435 12.2177 94.8875C11.586 96.5315 11.1325 98.1674 10.7519 99.7466C10.0149 102.905 9.61002 105.845 9.32658 108.452C9.04313 111.06 8.90544 113.344 8.80825 115.223C8.71917 117.102 8.69488 118.584 8.67868 119.588C8.67868 120.592 8.6706 121.135 8.6706 121.135C8.6706 121.135 8.69489 120.6 8.72728 119.588C8.77587 118.584 8.84873 117.11 8.9945 115.231C9.14837 113.36 9.35894 111.084 9.72337 108.501C10.0878 105.918 10.5818 103.002 11.4079 99.9085C11.829 98.3617 12.3311 96.7744 12.9871 95.1952C13.6593 93.6322 14.461 92.0288 15.6191 90.6925C16.186 90.0203 16.8743 89.4454 17.6032 88.9999L18.1538 88.7246C18.332 88.6274 18.5993 88.5788 18.8099 88.4978C19.1905 88.3521 19.6439 88.3035 20.0813 88.2873C21.8305 88.2468 23.6446 89.0404 25.1348 90.1904C28.1474 92.5957 30.3501 96.1752 32.3019 99.8357C34.2455 103.529 35.8814 107.481 37.3796 111.473C40.3355 119.482 42.7003 127.719 44.6844 135.493C45.6805 139.397 46.547 143.13 47.3649 146.774C47.8751 148.912 49.0737 150.823 50.6448 152.192C51.4304 152.88 52.3131 153.431 53.2363 153.844C53.6979 154.047 54.1676 154.217 54.7021 154.371C54.9694 154.452 55.1233 154.476 55.3338 154.524L55.6983 154.597L55.9979 154.654C58.3708 155.108 60.5897 155.529 62.6386 155.917C60.1119 162.607 55.7225 169.604 47.9318 173.807C47.9318 173.807 45.5104 174.779 44.5224 174.827C39.137 175.07 34.5208 175.086 29.2406 175.014C28.941 175.014 28.6333 174.989 28.3336 174.949C27.0055 174.771 25.8069 174.455 24.7217 174.05C11.011 168.948 8.52482 147.236 8.20088 144.126C7.5692 143.867 6.69455 143.43 5.80372 142.693C3.70623 140.943 2.92071 138.635 1.73023 132.877C0.44258 126.633 -0.197216 123.507 0.0538361 121.629C0.572137 117.709 1.98127 117.191 2.68584 112.769L2.62913 112.817ZM397.833 138.457C397.858 138.692 397.866 138.943 397.906 139.17C397.971 139.623 398.068 140.077 398.214 140.522C398.489 141.405 398.935 142.247 399.599 142.944C399.923 143.292 400.344 143.592 400.846 143.754C401.097 143.826 401.356 143.867 401.615 143.859H401.761L401.826 143.835L401.964 143.802C402.036 143.794 402.198 143.729 402.312 143.689C403.194 143.26 403.535 142.555 403.81 141.964C404.304 140.733 404.401 139.68 404.474 138.943C404.531 138.206 404.515 137.785 404.515 137.785C404.515 137.785 404.523 137.364 404.474 136.627C404.401 135.898 404.304 134.837 403.81 133.614C403.543 133.023 403.178 132.319 402.328 131.897C402.101 131.8 401.899 131.735 401.583 131.727C401.478 131.727 401.421 131.711 401.275 131.727C401.137 131.752 400.967 131.776 400.854 131.825C400.36 131.986 399.939 132.286 399.615 132.634C398.951 133.331 398.514 134.173 398.23 135.056C397.947 135.947 397.817 136.837 397.809 137.817L397.833 138.457ZM283.386 142.352C283.807 142.96 284.245 143.559 284.69 144.15C285.589 145.341 286.544 146.499 287.557 147.633C288.059 148.191 288.593 148.75 289.136 149.293C289.654 149.811 290.213 150.378 290.853 150.913C292.124 151.957 293.614 152.767 295.21 153.253C296.012 153.496 296.83 153.666 297.672 153.747C298.085 153.787 298.563 153.812 298.919 153.804C299.389 153.804 299.713 153.779 300.117 153.771C301.664 153.723 303.211 153.666 304.774 153.617C311.01 153.407 317.335 153.196 323.668 152.978C326.834 152.872 330.001 152.775 333.151 152.67C336.342 152.565 339.452 152.33 342.57 152.168C348.797 151.811 354.92 151.463 360.848 151.123C362.33 151.042 363.804 150.953 365.253 150.872C366.784 150.799 368.298 150.386 369.635 149.69C370.971 148.993 372.145 148.013 373.052 146.855C373.991 145.681 374.518 144.345 375.052 143.089C375.579 141.818 376.04 140.538 376.429 139.259C376.526 138.935 376.615 138.619 376.713 138.303L376.842 137.825C376.891 137.631 376.923 137.429 376.923 137.226C376.923 136.416 376.486 135.639 375.814 135.242C375.644 135.145 375.465 135.056 375.279 135.007C375.109 134.951 374.842 134.918 374.712 134.91C374.348 134.902 374.064 134.91 373.74 134.91C373.109 134.918 372.485 134.926 371.87 134.934C370.631 134.951 369.424 134.967 368.234 134.983C363.48 135.04 359.131 135.096 355.268 135.137C351.405 135.185 348.044 135.193 345.274 135.185H336.56C336.56 135.185 333.394 135.283 327.855 135.453C325.085 135.526 321.716 135.606 317.861 135.655C313.998 135.72 309.641 135.785 304.896 135.866C300.142 135.939 294.999 136.028 289.557 136.206C288.197 136.246 286.82 136.295 285.419 136.335L284.892 136.352H284.633C284.544 136.368 284.366 136.384 284.245 136.4C283.686 136.481 283.143 136.765 282.73 137.161C281.912 137.963 281.58 139.21 282.139 140.417L282.204 140.547L282.309 140.725L282.455 140.951L282.754 141.413L283.37 142.328L283.386 142.352ZM227.96 142.158C227.96 142.668 228.058 143.284 228.236 143.98C228.422 144.669 228.722 145.438 229.24 146.207C229.774 146.969 230.503 147.689 231.629 148.159C232.617 148.58 234.002 148.702 235.241 148.264C236.496 147.859 237.63 147.009 238.44 145.916C238.861 145.373 239.185 144.766 239.436 144.134C239.501 143.972 239.565 143.818 239.614 143.656L239.76 143.122C239.873 142.709 239.873 142.587 239.954 142.158C240.108 140.806 239.987 139.397 239.46 138.133C238.966 136.87 238.083 135.76 236.99 135.04C236.439 134.667 235.856 134.432 235.208 134.286C235.055 134.254 234.868 134.205 234.739 134.197L234.35 134.173C233.994 134.157 233.743 134.173 233.443 134.205C232.301 134.359 231.362 134.87 230.665 135.461C229.969 136.06 229.475 136.724 229.11 137.34C228.762 137.963 228.511 138.538 228.373 139.024C228.219 139.51 228.13 139.899 228.09 140.166C228.049 140.433 228.025 140.579 228.025 140.579C228.025 140.579 228.009 140.725 227.985 140.992C227.952 141.259 227.944 141.664 227.96 142.166V142.158ZM219.109 116.591C221.595 117.296 225.158 118.276 229.45 119.345C231.597 119.887 233.921 120.479 236.391 121.045C238.853 121.629 241.452 122.252 244.149 122.851C246.846 123.459 249.632 124.074 252.474 124.665C255.317 125.249 258.2 125.848 261.083 126.439C261.472 126.512 261.731 126.569 262.03 126.65C262.322 126.731 262.605 126.828 262.881 126.941C263.432 127.168 263.966 127.451 264.452 127.8C264.703 127.978 264.889 128.132 265.156 128.358L265.95 129.071C266.477 129.549 266.995 130.035 267.505 130.529C269.538 132.497 271.433 134.546 273.166 136.619C274.891 138.7 276.478 140.781 277.871 142.847C278.219 143.357 278.559 143.875 278.883 144.377C279.045 144.636 279.207 144.887 279.361 145.138C279.491 145.365 279.62 145.592 279.75 145.819C280.228 146.742 280.519 147.738 280.633 148.718C280.851 150.686 280.398 152.565 279.58 154.014C279.151 154.751 278.713 155.31 278.154 155.909C277.652 156.428 277.11 156.922 276.632 157.327C275.66 158.144 274.842 158.752 274.267 159.132C273.692 159.513 273.385 159.716 273.385 159.716C273.385 159.716 273.733 159.594 274.373 159.311C275.004 159.027 275.944 158.598 277.053 157.902C277.62 157.545 278.203 157.165 278.867 156.654C279.458 156.209 280.155 155.521 280.73 154.759C281.88 153.221 282.738 151.05 282.69 148.588C282.673 147.365 282.439 146.078 281.936 144.831C281.807 144.523 281.661 144.215 281.515 143.907C281.37 143.64 281.224 143.365 281.078 143.089C280.778 142.531 280.471 141.98 280.147 141.421C278.851 139.186 277.377 136.886 275.668 134.643C273.968 132.391 272.056 130.164 269.967 128.051C269.441 127.524 268.914 126.998 268.372 126.488L267.554 125.718C267.27 125.459 266.89 125.143 266.541 124.9C265.837 124.39 265.067 123.969 264.258 123.629C263.853 123.459 263.44 123.321 263.018 123.2C262.605 123.078 262.144 122.989 261.812 122.916C258.921 122.357 256.03 121.799 253.179 121.24C250.328 120.697 247.518 120.195 244.797 119.717C242.076 119.231 239.436 118.81 236.933 118.405C234.439 117.984 232.066 117.628 229.872 117.312C225.498 116.656 221.83 116.186 219.263 115.879C216.695 115.571 215.221 115.433 215.221 115.433C215.221 115.433 216.639 115.879 219.125 116.575L219.109 116.591ZM157.245 47.2606C159.261 50.9372 161.245 54.6301 163.157 58.3635C163.561 59.1572 164.379 59.5864 165.205 59.5216L182.528 58.1773C183.629 58.3149 184.82 58.4526 186.116 58.6146C188.399 58.9223 190.975 59.2705 193.769 59.6836C195.17 59.8698 196.619 60.129 198.118 60.38C199.624 60.6149 201.171 60.8821 202.758 61.1737C204.345 61.4409 205.973 61.7568 207.633 62.0807C209.293 62.3965 210.986 62.7448 212.703 63.1173C216.137 63.8381 219.668 64.6722 223.239 65.5711C225.029 65.9841 226.81 66.5268 228.608 66.9965C230.414 67.45 232.196 68.025 233.986 68.5514C235.792 69.0454 237.557 69.6447 239.331 70.2115C240.213 70.5031 241.112 70.7622 241.979 71.07C242.845 71.3696 243.712 71.6693 244.578 71.9689C245.445 72.2685 246.303 72.5601 247.162 72.8597C248.028 73.1837 248.895 73.4995 249.753 73.8234C250.612 74.1393 251.462 74.4551 252.312 74.771C252.717 74.9248 253.122 75.0787 253.527 75.2245C253.94 75.3865 254.353 75.5403 254.758 75.7023C258.022 76.9899 261.164 78.2857 264.128 79.5734C267.084 80.861 269.878 82.1001 272.437 83.3067C274.98 84.5296 277.328 85.6472 279.394 86.6676C281.459 87.7123 283.248 88.6193 284.73 89.3644C287.694 90.8869 289.387 91.7534 289.387 91.7534C289.387 91.7534 289.023 91.4457 288.35 90.8545C287.662 90.2795 286.666 89.4211 285.346 88.4006C284.034 87.3721 282.422 86.125 280.519 84.7806C278.616 83.4282 276.454 81.93 274.016 80.4156C271.587 78.8769 268.914 77.2734 266.023 75.6942C263.132 74.115 260.03 72.5358 256.758 71.0214C256.345 70.8351 255.94 70.6408 255.527 70.4545L254.871 70.1548L254.248 69.8876C253.414 69.5394 252.58 69.183 251.737 68.8267C250.895 68.4704 250.045 68.114 249.194 67.7496C248.312 67.4176 247.421 67.0774 246.53 66.7454C244.748 66.0732 242.951 65.3768 241.128 64.8018C239.306 64.2025 237.492 63.5708 235.638 63.0444C231.953 61.9511 228.228 60.955 224.535 60.1452C222.688 59.7403 220.858 59.3191 219.028 59.0114C217.206 58.6794 215.408 58.3311 213.618 58.0963C211.836 57.8371 210.087 57.5537 208.362 57.3917C206.637 57.1973 204.961 56.9949 203.317 56.8815C203.017 56.8572 202.726 56.8329 202.434 56.8086L205.754 56.5819L215.902 55.9745L226.049 55.4319L236.205 54.9217L246.36 54.4682L256.515 54.0713L266.679 53.7069C273.457 53.4802 280.228 53.3182 287.014 53.1481C293.793 52.9699 300.571 52.8647 307.357 52.7513L327.709 52.484L317.537 51.9981L307.366 51.6256C303.972 51.5041 300.579 51.407 297.186 51.3422L287.006 51.1478C283.613 51.0749 280.22 51.0749 276.826 51.0425L266.638 51.0182C263.245 51.0425 259.844 51.0263 256.451 51.0749L246.263 51.2369L236.075 51.4555C232.682 51.5365 229.288 51.6256 225.895 51.7552L215.715 52.152L205.536 52.6136L195.364 53.14L185.184 53.7798L166.291 55.1565C164.574 51.8038 162.824 48.4672 161.002 45.1712C158.945 41.4621 156.832 37.7854 154.653 34.1492C150.904 27.8729 146.952 21.7018 142.854 15.6523C152.693 14.6967 162.557 13.895 172.429 13.2714C177.944 12.915 183.459 12.5749 188.982 12.3158L197.267 11.9513L205.552 11.6598L213.845 11.4168L222.138 11.2468C227.669 11.1739 233.2 11.1091 238.731 11.101L247.032 11.1334L255.333 11.2144L263.634 11.352L271.943 11.5383C266.428 11.0605 260.897 10.607 255.365 10.2668L247.065 9.77284L238.756 9.39221L230.447 9.10067C227.677 9.00349 224.907 8.963 222.129 8.90631L213.812 8.80103L205.495 8.77673C199.94 8.78483 194.4 8.89821 188.853 9.02778L180.536 9.27883C177.766 9.37601 174.988 9.4813 172.219 9.61087C161.132 10.1535 150.061 10.9066 138.999 11.8703C137.873 11.9675 137.031 12.9636 137.128 14.0893C137.161 14.4537 137.282 14.7858 137.476 15.0611L137.493 15.0854C142.23 22.0096 146.733 29.0795 151.009 36.3033C153.147 39.9072 155.22 43.5515 157.237 47.2282L157.245 47.2606ZM150.887 60.0723C150.912 59.8293 150.887 59.5945 150.806 59.3677V59.3515C148.928 53.6421 146.741 48.0299 144.174 42.5958C142.894 39.8829 141.517 37.1861 140.1 34.5703C138.691 31.9545 137.29 29.3225 135.808 26.7148C134.31 24.1071 132.755 21.4832 130.755 19.0375C130.253 18.4301 129.718 17.8389 129.151 17.272C128.86 16.9886 128.592 16.7051 128.26 16.4298C127.945 16.1625 127.612 15.8548 127.329 15.6442L126.892 15.3041L126.778 15.215L126.681 15.1421L126.616 15.1016L126.365 14.9315L125.377 14.2675C124.705 13.8545 124.017 13.4495 123.312 13.0851C120.478 11.6598 117.425 10.7366 114.347 10.2992C111.27 9.83763 108.168 9.78094 105.123 10.0239C102.07 10.2506 99.0735 10.7447 96.1176 11.4006C93.1698 12.0566 90.2624 12.8664 87.4118 13.7978C84.553 14.7129 81.751 15.7738 78.9732 16.8671C76.2035 17.9847 73.4501 19.0941 70.7128 20.3251C67.9836 21.5561 65.3192 22.9328 62.7115 24.3986C60.1119 25.8725 57.5609 27.4355 55.099 29.12C52.6371 30.8126 50.248 32.5943 47.9238 34.465C45.6076 36.3438 43.3967 38.3361 41.2344 40.3688C45.8181 36.5868 50.6367 33.1126 55.6902 30.0432C60.7355 26.9577 66.0238 24.3015 71.4659 22.0663C74.187 20.9649 76.981 19.9445 79.7587 18.9484C82.5446 17.9604 85.3466 17.0371 88.1568 16.203C90.9751 15.3689 93.8176 14.6481 96.6845 14.0974C99.5432 13.5386 102.434 13.1418 105.317 13.0041C106.759 12.9231 108.192 12.9312 109.626 12.9717C111.051 13.0608 112.476 13.158 113.869 13.409C116.663 13.8464 119.352 14.721 121.806 16.0086C122.413 16.3326 123.004 16.697 123.588 17.0614L124.438 17.6526L124.648 17.7984L124.705 17.8389L124.729 17.8551L124.827 17.9361L125.264 18.2843C126.309 19.1346 127.232 20.1065 128.106 21.2078C129.848 23.3782 131.346 25.8888 132.787 28.4317C134.221 30.9908 135.606 33.6066 136.999 36.2305C138.391 38.8463 139.712 41.4459 140.943 44.1184C143.032 48.6292 144.927 53.2372 146.579 57.9262L136.626 57.0597L123.952 56.015L111.278 54.9784L98.6038 53.9985L90.1572 53.3587C90.1572 53.3587 90.1653 53.2939 90.1733 53.2534C90.3677 52.152 90.6592 50.5485 91.0318 48.6454C91.7849 44.831 92.9268 39.7533 94.2954 34.7323C95.656 29.7031 97.2352 24.7145 98.5309 21.0054C99.8186 17.2963 100.774 14.8506 100.774 14.8506C100.774 14.8506 99.4947 17.1424 97.7049 20.6572C95.9071 24.1719 93.6395 28.9257 91.5825 33.7928C89.5093 38.6519 87.6466 43.6162 86.3509 47.382C85.703 49.2609 85.1847 50.8401 84.8284 51.9576C84.7069 52.3545 84.6016 52.6784 84.5125 52.9457L73.2395 52.1439L60.5492 51.2855L53.8842 50.8644C53.9004 50.8077 53.9166 50.7591 53.9328 50.6943C54.1191 50.0545 54.3944 49.1232 54.7427 48.0299C55.4391 45.8271 56.4757 42.9117 57.6581 40.0529C58.8323 37.1861 60.1605 34.384 61.2295 32.3027C62.2904 30.2295 63.0678 28.869 63.0678 28.869C63.0678 28.869 62.1446 30.1242 60.8489 32.076C59.545 34.0196 57.8848 36.6759 56.3704 39.4293C54.8479 42.1747 53.4631 45.0011 52.4913 47.1553C52.0054 48.2324 51.6167 49.1394 51.3494 49.7792C51.1631 50.2327 51.0336 50.5323 50.9769 50.6781L47.8833 50.4837C47.0086 50.3137 46.1421 49.9978 45.3323 49.5929C44.9273 49.3823 44.5305 49.1556 44.158 48.8802C43.7855 48.613 43.4291 48.3214 43.1132 47.9813C42.9432 47.8193 42.7974 47.6412 42.6597 47.463C42.5059 47.2848 42.3844 47.0905 42.2629 46.8961C42.1252 46.7099 42.0281 46.4993 41.9228 46.2887C41.8175 46.0863 41.7203 45.8676 41.6393 45.649C41.3154 44.7743 41.1858 43.8268 41.2344 42.8874C41.1291 43.8268 41.1939 44.7905 41.4612 45.7137C41.526 45.9486 41.607 46.1673 41.7041 46.3859C41.7932 46.6046 41.8823 46.8313 42.0119 47.0338C42.1253 47.2443 42.2387 47.4549 42.3844 47.6493C42.5221 47.8517 42.6598 48.0461 42.8217 48.2243C43.1295 48.6049 43.4858 48.9369 43.8583 49.2447C44.0365 49.4066 44.247 49.5362 44.4333 49.682C44.6358 49.8197 44.8382 49.9492 45.0488 50.0707C45.891 50.5566 46.7819 50.9372 47.7456 51.1802H47.7699H47.7942L60.4277 52.646L73.0695 54.0552L85.7111 55.4238L98.3609 56.7357L111.011 58.0234L123.669 59.2624L136.326 60.4853L148.984 61.6515C149.948 61.7406 150.806 61.0279 150.896 60.0642L150.887 60.0723ZM28.0016 51.9333C30.8846 52.5488 33.5814 53.7231 36.2053 55.0836C38.813 56.4604 41.4774 57.91 44.077 59.3272C45.3727 60.048 46.6523 60.785 47.8833 61.5624C48.4987 61.9511 49.1061 62.3561 49.7135 62.7691C50.3209 63.1659 50.8716 63.6194 51.568 64.0405C52.2564 64.4697 52.9448 64.9314 53.6574 65.2553C54.362 65.5873 55.0666 66.0003 55.7873 66.2676L57.9415 67.1584L60.1119 67.9197C63.0112 68.9239 65.9509 69.7256 68.8825 70.4788C71.8222 71.2158 74.7782 71.8798 77.7422 72.4467C80.6981 73.0622 83.6703 73.5643 86.6343 74.0907C89.6065 74.5928 92.5786 75.0544 95.5507 75.5241C98.5309 75.9371 101.503 76.3502 104.483 76.7308L113.432 77.816L122.381 78.8121C125.361 79.1279 128.358 79.3871 131.338 79.6624C134.326 79.9459 137.314 80.1726 140.303 80.4237C143.291 80.6747 146.279 80.9258 149.268 81.1363L150.272 81.2092C149.341 82.173 148.45 83.1772 147.624 84.23C147.316 84.6349 146.952 85.1046 146.692 85.4852L146.279 86.0683L145.826 86.7405C145.251 87.607 144.741 88.4978 144.263 89.3968C143.291 91.1946 142.489 93.0573 141.817 94.9604C141.655 95.4382 141.461 95.9646 141.339 96.41L141.137 97.0984L140.934 97.8596C140.667 98.8315 140.449 99.8114 140.27 100.799C140.092 101.787 139.946 102.775 139.841 103.763C139.744 104.76 139.679 105.748 139.647 106.736C139.631 107.724 139.631 108.712 139.687 109.7C139.752 110.679 139.817 111.659 139.963 112.631C140.092 113.603 140.262 114.559 140.457 115.514C140.683 116.462 140.91 117.409 141.202 118.324C141.331 116.389 141.485 114.502 141.744 112.631C142.011 110.769 142.335 108.93 142.781 107.14C142.999 106.242 143.234 105.359 143.502 104.484C143.769 103.61 144.044 102.743 144.36 101.893C144.684 101.042 144.992 100.2 145.356 99.374L145.615 98.7829L145.915 98.135C146.117 97.6896 146.296 97.3413 146.49 96.9364C147.292 95.3329 148.191 93.7861 149.154 92.3041C149.64 91.5672 150.159 90.8545 150.677 90.158L151.049 89.6721L151.495 89.1133C151.803 88.7327 152.045 88.4654 152.337 88.1334C153.503 86.8296 154.726 85.5743 156.054 84.4486C157.366 83.2986 158.759 82.2377 160.217 81.2902L168.323 76.01L158.654 75.3622L149.713 74.7629C146.733 74.5766 143.753 74.358 140.781 74.1231C137.808 73.8963 134.82 73.6939 131.848 73.4347C128.876 73.1918 125.904 72.9245 122.923 72.714L114.007 71.9527L105.107 71.1024L96.2229 70.1468C93.2669 69.8147 90.311 69.4746 87.3551 69.102C84.4072 68.7052 81.4594 68.3327 78.5359 67.8549C77.0701 67.6281 75.6042 67.4095 74.1465 67.1341C72.6969 66.8588 71.223 66.6563 69.7814 66.3486C66.8822 65.7817 63.9992 65.1662 61.189 64.3807L59.0915 63.7814L57.0507 63.0768C55.7145 62.5747 54.3944 62.024 53.2202 61.3599C52.6128 61.0603 51.9568 60.6068 51.2846 60.2343C50.6206 59.8536 49.9484 59.473 49.2762 59.1167C47.9238 58.3959 46.547 57.7318 45.1784 57.1002C42.4168 55.853 39.7362 54.6139 36.9261 53.4559C34.1321 52.314 31.1762 51.326 28.1393 50.9696C25.1104 50.6133 22.0573 50.7186 19.1175 51.2936C22.1059 51.0911 25.1023 51.2774 27.9773 51.9333H28.0016ZM9.47234 144.814C10.0554 149.325 11.1163 153.982 13.149 158.412C14.1532 160.623 15.4328 162.777 17.1821 164.648C18.0567 165.579 19.0609 166.429 20.2271 167.077C20.5186 167.239 20.8183 167.401 21.1341 167.522C21.4419 167.668 21.7658 167.774 22.0897 167.871C22.3975 167.984 22.7862 168.041 23.1425 168.114C23.5231 168.178 23.6932 168.178 24.1224 168.219C25.5154 168.251 26.8921 167.903 28.0988 167.304C29.3054 166.705 30.3501 165.878 31.2491 164.971C33.0469 163.133 34.3426 160.987 35.3711 158.776C37.4362 154.354 38.481 149.698 39.0802 145.187C39.6633 140.66 39.7443 136.279 39.5014 132.124C39.2503 127.978 38.651 124.091 37.7926 120.576C36.9179 117.069 35.8328 113.927 34.5208 111.295C33.217 108.671 31.735 106.549 30.2206 105.083C29.4593 104.355 28.698 103.796 27.9935 103.383C27.2808 102.978 26.633 102.727 26.0904 102.573C25.5478 102.427 25.1186 102.354 24.827 102.346C24.5355 102.322 24.3897 102.306 24.3897 102.306C24.3897 102.306 24.2358 102.306 23.9523 102.306C23.6608 102.306 23.2316 102.346 22.6809 102.46C22.1302 102.573 21.4661 102.792 20.7372 103.164C20.0165 103.545 19.231 104.079 18.4535 104.784C16.8824 106.193 15.3842 108.307 14.056 110.922C12.7279 113.538 11.6346 116.68 10.7519 120.187C9.88537 123.702 9.29413 127.589 9.05118 131.735C8.80823 135.874 8.89736 140.279 9.48045 144.798L9.47234 144.814Z" fill="#9CA5B3"/>
<path d="M150.773 136.271C150.935 131.347 151.802 126.682 153.227 122.592C154.628 118.486 156.62 114.972 158.847 112.234C161.058 109.465 163.585 107.578 165.861 106.444C168.136 105.294 170.145 104.905 171.489 104.759C171.829 104.727 172.129 104.703 172.388 104.678C172.647 104.678 172.866 104.678 173.044 104.678C173.4 104.678 173.578 104.678 173.578 104.678C173.578 104.678 173.757 104.695 174.113 104.719C174.291 104.735 174.51 104.751 174.769 104.768C175.028 104.808 175.328 104.849 175.66 104.905C176.996 105.14 178.972 105.642 181.183 106.914C182.147 107.464 183.151 108.145 184.163 108.979C184.187 109.027 184.22 109.084 184.244 109.133C186.738 113.943 188.779 119.037 190.577 124.212C191.46 126.803 192.343 129.403 193.136 132.035C193.938 134.659 194.691 137.307 195.404 139.963C195.501 140.336 195.598 140.717 195.695 141.089C195.663 141.664 195.639 142.255 195.59 142.822C195.525 143.454 195.485 144.086 195.404 144.725C195.104 147.284 194.594 149.876 193.889 152.435C193.177 154.994 192.221 157.529 191.022 159.95C190.407 161.157 189.751 162.339 189.022 163.489C188.277 164.623 187.475 165.716 186.601 166.745C185.71 167.765 184.754 168.713 183.726 169.563C182.705 170.43 181.604 171.191 180.446 171.806C179.288 172.422 178.065 172.908 176.802 173.208C176.17 173.369 175.53 173.467 174.89 173.54C174.566 173.556 174.251 173.596 173.927 173.604H173.441H173.198H173.076H173.02C172.914 173.604 173.028 173.604 173.02 173.604L171.926 173.531C171.586 173.499 171.319 173.442 171.011 173.402C170.396 173.297 169.748 173.151 169.132 172.956C167.885 172.576 166.687 172.025 165.553 171.345C164.411 170.673 163.35 169.855 162.362 168.948C161.366 168.049 160.418 167.077 159.576 166.016C157.867 163.91 156.45 161.562 155.292 159.116C154.102 156.679 153.211 154.128 152.514 151.56C151.13 146.418 150.619 141.202 150.789 136.262L150.773 136.271ZM163.05 144.231C161.965 144.685 160.88 145.138 159.86 145.559C159.301 145.778 158.774 146.053 158.313 146.353C157.851 146.653 157.454 146.969 157.114 147.292C155.843 148.515 154.993 149.325 154.993 149.325C154.993 149.325 156.045 148.807 157.633 148.029C158.005 147.851 158.426 147.689 158.872 147.568C159.325 147.446 159.787 147.365 160.289 147.333C161.39 147.236 162.556 147.131 163.731 147.025C166.257 146.798 168.768 146.58 170.566 146.418C169.262 148.2 167.521 150.564 165.788 152.929C165.35 153.52 164.913 154.119 164.484 154.703C164.055 155.302 163.634 155.828 163.196 156.476C162.775 157.124 162.459 157.788 162.241 158.444C162.127 158.768 162.046 159.092 161.981 159.4C161.925 159.691 161.868 159.975 161.811 160.25C161.382 162.42 161.099 163.87 161.099 163.87C161.099 163.87 161.722 162.534 162.662 160.525C162.775 160.274 162.905 160.015 163.026 159.748C163.148 159.497 163.285 159.246 163.447 159.003C163.763 158.517 164.152 158.047 164.597 157.626C165.043 157.229 165.634 156.76 166.185 156.298C166.743 155.836 167.31 155.359 167.877 154.889C170.023 153.107 172.153 151.334 173.821 149.949C173.206 152.16 172.347 155.278 171.489 158.395C171.287 159.116 171.092 159.845 170.89 160.558C170.695 161.287 170.493 161.918 170.307 162.728C170.145 163.497 170.104 164.251 170.137 164.947C170.185 165.66 170.282 166.21 170.339 166.785C170.606 169.021 170.784 170.511 170.784 170.511C170.784 170.511 170.963 169.021 171.23 166.785C171.303 166.243 171.359 165.587 171.457 165.02C171.57 164.437 171.756 163.846 172.024 163.287C172.283 162.761 172.688 162.08 173.036 161.449C173.4 160.801 173.765 160.145 174.129 159.489C175.409 157.197 176.688 154.905 177.725 153.05C178.041 154.362 178.389 155.788 178.737 157.213C178.883 157.829 179.037 158.444 179.183 159.043C179.32 159.635 179.507 160.38 179.766 160.979C180.025 161.594 180.341 162.153 180.681 162.631C181.013 163.068 181.321 163.481 181.612 163.862C182.762 165.368 183.523 166.372 183.523 166.372C183.523 166.372 183.118 165.174 182.503 163.384C182.349 162.939 182.187 162.461 182.017 161.951C181.879 161.481 181.782 160.971 181.742 160.461C181.701 159.926 181.742 159.464 181.798 158.833C181.847 158.209 181.904 157.586 181.952 156.954C182.219 153.787 182.479 150.621 182.641 148.71C182.811 148.823 182.981 148.928 183.159 149.05C183.369 149.188 183.58 149.317 183.791 149.455C184.009 149.601 184.317 149.819 184.568 149.957C185.103 150.265 185.653 150.516 186.204 150.702C186.738 150.888 187.346 151.026 187.807 151.091C188.739 151.228 189.613 151.358 190.367 151.471C191.865 151.69 192.861 151.836 192.861 151.836C192.861 151.836 192.027 151.269 190.771 150.418C190.148 149.997 189.411 149.503 188.633 148.969C188.237 148.702 187.961 148.467 187.662 148.167C187.378 147.876 187.119 147.56 186.9 147.228C186.779 147.05 186.73 146.928 186.609 146.726C186.479 146.515 186.35 146.296 186.22 146.086C185.961 145.665 185.71 145.244 185.459 144.839C184.965 144.029 184.511 143.276 184.115 142.628C183.758 142.045 183.459 141.551 183.232 141.186L183.58 141.575C183.58 141.575 185.572 138.579 187.573 135.582C187.751 135.274 187.961 134.975 188.204 134.699C188.463 134.408 188.674 134.181 189.03 133.906C189.686 133.371 190.294 132.869 190.812 132.44C191.857 131.582 192.553 131.007 192.553 131.007C192.553 131.007 191.67 131.168 190.334 131.42C189.67 131.541 188.893 131.687 188.067 131.841C187.678 131.897 187.127 132.043 186.657 132.213C186.163 132.391 185.678 132.61 185.2 132.885C184.123 133.444 183.046 134.003 182.09 134.505C182.033 132.448 181.896 127.913 181.766 123.362L181.734 122.212L181.717 121.653C181.717 121.515 181.717 121.353 181.717 121.191C181.742 120.551 181.855 119.936 182.066 119.32C182.535 117.96 182.973 116.688 183.345 115.595C184.098 113.417 184.592 111.967 184.592 111.967C184.592 111.967 183.734 113.239 182.438 115.15C181.79 116.105 181.037 117.215 180.227 118.405C179.79 119.061 179.393 119.847 179.134 120.681C179.069 120.892 179.004 121.102 178.956 121.337L178.818 121.912L178.551 123.03C178.13 124.795 177.709 126.56 177.32 128.18C176.202 125.953 174.704 122.973 173.214 119.985L172.655 118.875L172.388 118.332C172.307 118.179 172.242 118.033 172.169 117.863C171.902 117.207 171.748 116.567 171.675 115.814L171.214 111.595C170.946 109.125 170.768 107.481 170.768 107.481C170.768 107.481 170.59 109.125 170.323 111.595L169.861 115.814C169.756 116.599 169.756 117.563 169.918 118.47C169.958 118.697 170.007 118.94 170.064 119.167L170.218 119.782L170.525 120.981C171.546 125.006 172.558 129.03 173.174 131.476C171.473 130.01 169.302 128.14 167.132 126.269C166.549 125.767 165.966 125.265 165.391 124.771C164.832 124.317 164.411 123.88 164.03 123.353C163.658 122.811 163.269 122.179 162.913 121.637C162.556 121.078 162.216 120.551 161.9 120.066C160.653 118.122 159.819 116.826 159.819 116.826C159.819 116.826 160.329 118.284 161.099 120.462C161.293 121.005 161.496 121.596 161.714 122.228C161.941 122.868 162.143 123.483 162.427 124.22C162.718 124.957 163.18 125.726 163.666 126.358C164.111 126.973 164.565 127.597 165.01 128.221C167.019 130.99 169.019 133.76 170.404 135.679C168.517 135.372 165.958 134.959 163.391 134.546C162.143 134.343 160.904 134.141 159.738 133.954C159.463 133.914 159.188 133.865 158.92 133.825C158.645 133.768 158.37 133.703 158.102 133.647C157.576 133.533 157.074 133.428 156.612 133.331L153.535 132.667C153.535 132.667 154.644 133.266 156.304 134.173C156.717 134.4 157.171 134.643 157.649 134.902C157.884 135.031 158.135 135.161 158.378 135.299C158.645 135.428 158.92 135.558 159.196 135.696C160.265 136.206 161.398 136.748 162.532 137.291C165.707 138.813 168.881 140.328 170.509 141.105C168.922 141.769 165.974 143 163.018 144.231H163.05Z" fill="#9CA5B3"/>
<path d="M9.99841 131.784C10.0713 127.694 10.4924 123.815 11.197 120.309C11.9015 116.794 12.9462 113.652 14.1934 111.012C15.4325 108.372 16.9226 106.25 18.4694 104.841C19.2387 104.128 20.0162 103.593 20.7289 103.205C21.4577 102.832 22.1137 102.605 22.6643 102.492C23.215 102.379 23.6443 102.33 23.9358 102.33C24.2274 102.33 24.3732 102.322 24.3732 102.322C24.3732 102.322 24.5189 102.338 24.8105 102.363C25.102 102.379 25.5231 102.46 26.0657 102.605C26.6083 102.759 27.2562 103.018 27.9608 103.423C28.6572 103.845 29.4104 104.403 30.1635 105.132C31.6617 106.598 33.1275 108.728 34.3504 111.376C35.5814 114.024 36.618 117.166 37.3145 120.681C38.0271 124.196 38.4563 128.067 38.5292 132.165C38.6021 136.246 38.3429 140.595 37.5898 144.968C36.8204 149.334 35.6057 153.804 33.5892 157.926C33.0871 158.954 32.5121 159.942 31.8723 160.882C31.2406 161.821 30.5441 162.712 29.7586 163.498C28.2037 165.069 26.2196 166.146 24.1869 166.073C22.146 166.008 20.2105 164.826 18.688 163.214C17.1574 161.595 15.9345 159.627 14.9303 157.57C13.918 155.513 13.1406 153.342 12.4927 151.172C11.8286 148.993 11.3428 146.791 10.9621 144.604C10.209 140.223 9.93358 135.898 10.0065 131.8L9.99841 131.784ZM14.1772 129.476C14.4363 129.687 14.7198 129.913 15.0194 130.156C15.1652 130.278 15.3191 130.399 15.481 130.529C15.6511 130.65 15.8212 130.772 15.9993 130.901C16.6715 131.379 17.3842 131.889 18.0969 132.4C20.0891 133.825 22.0732 135.25 23.0936 135.979C22.0975 136.603 20.251 137.753 18.3965 138.911C17.7162 139.332 17.0359 139.761 16.3962 140.158C16.0479 140.36 15.7159 140.62 15.4243 140.903C15.1328 141.178 14.8898 141.486 14.6712 141.786C13.8694 142.928 13.3431 143.697 13.3431 143.697C13.3431 143.697 14.0071 143.211 14.9951 142.482C15.23 142.312 15.4892 142.158 15.7726 142.045C16.0561 141.932 16.3476 141.859 16.6634 141.826C17.3518 141.737 18.0887 141.64 18.8176 141.543C20.3968 141.332 21.976 141.122 23.1017 140.976C22.2838 142.644 21.1985 144.863 20.1053 147.082C19.8299 147.641 19.5546 148.2 19.2873 148.75C19.0201 149.309 18.7528 149.811 18.4775 150.419C18.2102 151.026 18.0159 151.65 17.8782 152.265C17.8053 152.573 17.7567 152.873 17.7162 153.164C17.6838 153.439 17.6433 153.707 17.6109 153.958C17.3437 155.999 17.1655 157.351 17.1655 157.351C17.1655 157.351 17.5543 156.096 18.1454 154.217C18.2183 153.982 18.2993 153.739 18.3722 153.488C18.4451 153.253 18.5342 153.018 18.6313 152.792C18.8257 152.33 19.0687 151.893 19.3521 151.504C19.6356 151.131 20 150.686 20.3482 150.257C20.6964 149.819 21.0528 149.382 21.4091 148.937C22.7534 147.268 24.0897 145.6 25.1344 144.296C24.7538 146.378 24.2112 149.293 23.6686 152.225C23.5471 152.905 23.4175 153.585 23.296 154.249C23.1746 154.938 23.045 155.529 22.9316 156.282C22.8344 157.003 22.802 157.707 22.8263 158.363C22.8587 159.035 22.9154 159.554 22.9559 160.088C23.126 162.186 23.2394 163.587 23.2394 163.587C23.2394 163.587 23.3527 162.186 23.5228 160.088C23.5714 159.578 23.6038 158.963 23.6686 158.428C23.7334 157.885 23.8548 157.327 24.0249 156.8C24.1868 156.306 24.4379 155.675 24.6566 155.075C24.8833 154.468 25.1101 153.852 25.3449 153.237C26.1467 151.083 26.9485 148.937 27.6044 147.196C27.8069 148.426 28.0174 149.763 28.2361 151.099C28.3333 151.674 28.4224 152.249 28.5114 152.816C28.5924 153.375 28.7139 154.071 28.8759 154.63C29.0379 155.205 29.2322 155.731 29.4508 156.185C29.6614 156.598 29.8558 156.987 30.034 157.343C30.7547 158.76 31.2325 159.7 31.2325 159.7C31.2325 159.7 30.9734 158.574 30.5928 156.897C30.4956 156.484 30.3984 156.031 30.285 155.553C30.1959 155.108 30.1392 154.638 30.1149 154.152C30.0906 153.65 30.1149 153.221 30.1554 152.63C30.1878 152.046 30.2202 151.455 30.2526 150.864C30.4146 147.892 30.5846 144.928 30.6818 143.13C30.7871 143.235 30.8924 143.341 31.0058 143.446C31.1354 143.576 31.2649 143.697 31.4026 143.827C31.5403 143.964 31.7346 144.167 31.8885 144.296C32.2205 144.588 32.5688 144.815 32.917 144.993C33.2571 145.171 33.6297 145.3 33.9212 145.357C34.5043 145.487 35.055 145.608 35.5247 145.714C36.4641 145.924 37.0877 146.062 37.0877 146.062C37.0877 146.062 36.5613 145.527 35.7757 144.734C35.387 144.337 34.9254 143.875 34.4314 143.373C34.1804 143.122 34.0103 142.903 33.824 142.62C33.6459 142.345 33.4839 142.045 33.3462 141.737C33.2733 141.567 33.2409 141.454 33.1599 141.259C33.079 141.057 32.998 140.854 32.917 140.66C32.755 140.263 32.593 139.875 32.4392 139.494C32.1314 138.733 31.8399 138.028 31.597 137.421C31.3702 136.87 31.1839 136.408 31.0463 136.068L31.2649 136.433C31.2649 136.433 32.5121 133.623 33.7673 130.812C33.8807 130.529 34.0103 130.245 34.1641 129.986C34.3261 129.711 34.4557 129.5 34.6825 129.241C35.0955 128.739 35.4761 128.269 35.8001 127.865C36.456 127.063 36.8933 126.52 36.8933 126.52C36.8933 126.52 36.3346 126.674 35.5004 126.909C35.0874 127.022 34.5934 127.16 34.0751 127.306C33.8321 127.362 33.4839 127.5 33.1923 127.654C32.8846 127.816 32.5768 128.026 32.2772 128.278C31.605 128.804 30.9248 129.33 30.3255 129.792C30.285 127.865 30.204 123.605 30.123 119.337L30.0987 118.26V117.741C30.0825 117.612 30.0826 117.458 30.0907 117.312C30.1069 116.713 30.1797 116.138 30.3093 115.555C30.6008 114.275 30.8762 113.085 31.111 112.064C31.5807 110.024 31.8966 108.655 31.8966 108.655C31.8966 108.655 31.354 109.845 30.5442 111.635C30.1392 112.526 29.6695 113.571 29.1593 114.696C28.884 115.312 28.641 116.049 28.471 116.826C28.4305 117.021 28.39 117.223 28.3576 117.442L28.2685 117.976L28.0984 119.029C27.8312 120.689 27.572 122.341 27.3291 123.856C26.6326 121.766 25.6932 118.972 24.7538 116.17L24.4055 115.134L24.2354 114.632C24.1869 114.486 24.1464 114.348 24.0978 114.194C23.9277 113.579 23.8305 112.98 23.79 112.267L23.4985 108.307L23.215 104.444C23.215 104.444 23.1017 105.991 22.9316 108.307L22.6401 112.267C22.5753 113.004 22.5753 113.911 22.6725 114.761C22.6967 114.972 22.7291 115.199 22.7615 115.417L22.8588 115.992L23.0531 117.118C23.6929 120.9 24.3326 124.674 24.7133 126.966C23.6443 125.589 22.2837 123.84 20.9232 122.082C20.5588 121.613 20.1943 121.135 19.8299 120.673C19.4817 120.244 19.2144 119.839 18.9715 119.337C18.7366 118.827 18.4937 118.235 18.275 117.725C18.0482 117.199 17.8377 116.705 17.6433 116.251C16.8578 114.429 16.3395 113.206 16.3395 113.206C16.3395 113.206 16.6634 114.575 17.1412 116.616C17.2627 117.126 17.3923 117.685 17.53 118.268C17.6757 118.867 17.7972 119.442 17.9754 120.139C18.1616 120.827 18.4532 121.556 18.7528 122.147C19.0282 122.722 19.3116 123.313 19.5951 123.896C20.8503 126.496 22.1056 129.095 22.9802 130.893C21.7978 130.61 20.1943 130.221 18.5827 129.832C17.8053 129.646 17.0197 129.452 16.2909 129.282C16.1127 129.241 15.9426 129.201 15.7807 129.16C15.6025 129.104 15.4324 129.047 15.2705 128.998C14.9384 128.893 14.6226 128.788 14.3311 128.699C13.173 128.326 12.3955 128.075 12.3955 128.075C12.3955 128.075 13.092 128.642 14.1286 129.484L14.1772 129.476Z" fill="#9CA5B3"/>
<path d="M398.059 180.205C332.558 182.318 267.058 184.432 201.558 186.546C203.996 185.776 208.029 184.132 211.851 180.561C214.102 178.455 215.633 176.293 216.637 174.576C277.108 176.455 337.579 178.326 398.05 180.205H398.059Z" fill="#DCE1E9"/>
<path d="M162.062 184.634C157.511 182.043 154.701 179.273 152.968 177.216C152.968 177.216 152.32 176.447 147.939 170.511L44.465 174.876L162.062 184.634Z" fill="#DCE1E9"/>
</svg>