<svg xmlns="http://www.w3.org/2000/svg" width="64" height="64" viewBox="0 0 64 64" fill="none">
<path d="M31.9987 45.3333C31.9987 52.6971 37.9682 58.6667 45.332 58.6667C52.6958 58.6667 58.6654 52.6971 58.6654 45.3333C58.6654 37.9695 52.6958 32 45.332 32C37.9682 32 31.9987 37.9695 31.9987 45.3333ZM31.9987 45.3333C31.9987 42.3311 32.9909 39.5607 34.6654 37.332V13.3333M31.9987 45.3333C31.9987 47.5343 32.532 49.6107 33.4764 51.4403C31.2298 53.338 26.041 54.6667 19.9987 54.6667C11.8985 54.6667 5.33203 52.2789 5.33203 49.3333V13.3333M34.6654 13.3333C34.6654 16.2789 28.0989 18.6667 19.9987 18.6667C11.8985 18.6667 5.33203 16.2789 5.33203 13.3333M34.6654 13.3333C34.6654 10.3878 28.0989 8 19.9987 8C11.8985 8 5.33203 10.3878 5.33203 13.3333M5.33203 37.3333C5.33203 40.2789 11.8985 42.6667 19.9987 42.6667C25.836 42.6667 30.8769 41.4266 33.2377 39.6314M34.6654 25.3333C34.6654 28.2789 28.0989 30.6667 19.9987 30.6667C11.8985 30.6667 5.33203 28.2789 5.33203 25.3333" stroke="#E4ECF8" stroke-width="2" stroke-linecap="round" stroke-linejoin="round"/>
</svg>