<svg xmlns="http://www.w3.org/2000/svg" width="64" height="64" viewBox="0 0 64 64" fill="none">
<path d="M42.6654 48L47.9987 53.3333L58.6654 42.6666M58.6654 26.6666H5.33203M58.6654 32V21.8666C58.6654 18.8797 58.6654 17.3862 58.0841 16.2454C57.5727 15.2418 56.7568 14.4259 55.7533 13.9146C54.6125 13.3333 53.119 13.3333 50.132 13.3333H13.8654C10.8784 13.3333 9.38495 13.3333 8.24408 13.9146C7.24055 14.4259 6.42466 15.2418 5.91333 16.2454C5.33203 17.3862 5.33203 18.8797 5.33203 21.8666V42.1333C5.33203 45.1203 5.33203 46.6137 5.91333 47.7546C6.42465 48.7581 7.24055 49.574 8.24408 50.0853C9.38494 50.6666 10.8784 50.6666 13.8654 50.6666H31.9987" stroke="#E4ECF8" stroke-width="2" stroke-linecap="round" stroke-linejoin="round"/>
</svg>