<svg xmlns="http://www.w3.org/2000/svg" width="24" height="25" viewBox="0 0 24 25" fill="none">
<g clip-path="url(#clip0_31_5795)">
<path d="M17.5048 2.41602C16.3788 2.43353 15.2773 2.74787 14.3116 3.32729C13.3459 3.9067 12.5502 4.73068 12.0048 5.71602C11.4595 4.73068 10.6638 3.9067 9.69808 3.32729C8.73238 2.74787 7.63089 2.43353 6.50484 2.41602C4.70978 2.49401 3.01855 3.27927 1.80062 4.60025C0.582701 5.92123 -0.0629094 7.67054 0.0048411 9.46602C0.0048411 14.013 4.79084 18.979 8.80484 22.346C9.70106 23.0991 10.8342 23.512 12.0048 23.512C13.1755 23.512 14.3086 23.0991 15.2048 22.346C19.2188 18.979 24.0048 14.013 24.0048 9.46602C24.0726 7.67054 23.427 5.92123 22.2091 4.60025C20.9911 3.27927 19.2999 2.49401 17.5048 2.41602ZM13.9198 20.816C13.3838 21.2674 12.7056 21.5149 12.0048 21.5149C11.3041 21.5149 10.6259 21.2674 10.0898 20.816C4.95184 16.505 2.00484 12.369 2.00484 9.46602C1.93648 8.20073 2.37121 6.95975 3.2142 6.01372C4.0572 5.06769 5.24008 4.49337 6.50484 4.41602C7.76961 4.49337 8.95248 5.06769 9.79548 6.01372C10.6385 6.95975 11.0732 8.20073 11.0048 9.46602C11.0048 9.73123 11.1102 9.98559 11.2977 10.1731C11.4853 10.3607 11.7396 10.466 12.0048 10.466C12.2701 10.466 12.5244 10.3607 12.7119 10.1731C12.8995 9.98559 13.0048 9.73123 13.0048 9.46602C12.9365 8.20073 13.3712 6.95975 14.2142 6.01372C15.0572 5.06769 16.2401 4.49337 17.5048 4.41602C18.7696 4.49337 19.9525 5.06769 20.7955 6.01372C21.6385 6.95975 22.0732 8.20073 22.0048 9.46602C22.0048 12.369 19.0578 16.505 13.9198 20.812V20.816Z" fill="white"/>
</g>
<defs>
<clipPath id="clip0_31_5795">
<rect width="24" height="24" fill="white" transform="translate(0 0.5)"/>
</clipPath>
</defs>
</svg>