<svg width="161" height="21" viewBox="0 0 161 21" fill="none" xmlns="http://www.w3.org/2000/svg">
<g id="Clip path group">
<mask id="mask0_730_1374" style="mask-type:luminance" maskUnits="userSpaceOnUse" x="0" y="0" width="161" height="21">
<g id="clip0_113_2787">
<path id="Vector" d="M161 0H0V21H161V0Z" fill="white"/>
</g>
</mask>
<g mask="url(#mask0_730_1374)">
<g id="Group">
<path id="Vector_2" d="M13.5648 7H6.67125C6.21109 7 5.76914 7.17834 5.43966 7.49699L0.26809 12.4985C-0.298472 13.0464 0.0926068 14 0.883885 14H9.75873C10.2189 14 10.6608 13.8217 10.9903 13.503L16.6867 7.99397C17.3457 7.35668 18.2296 7 19.1499 7H34V0H22.9559C22.4958 0 22.0538 0.178341 21.7243 0.496985L16.028 6.00603C15.369 6.64332 14.4851 7 13.5648 7Z" fill="#2E58DB"/>
<path id="Vector_3" d="M33.9997 14H14.8129C14.3527 14 13.9107 14.1783 13.5813 14.497L8.40969 19.4985C7.84313 20.0464 8.2342 21 9.02548 21H33.9997V14Z" fill="#2E58DB"/>
<path id="Vector_4" d="M49.1 3.5H51.3L56.4 17.5H54.36L53.04 13.66H47.26L45.92 17.5H44L49.1 3.5ZM52.44 11.94L50.2 5.4H50.16L47.86 11.94H52.44Z" fill="white"/>
<path id="Vector_5" d="M58.4033 3.5H63.0033C64.6967 3.5 65.9167 3.83333 66.6633 4.5C67.4233 5.15333 67.8033 6.06666 67.8033 7.24C67.8033 8.58666 67.2167 9.57333 66.0433 10.2V10.24C67.4833 10.8267 68.2033 11.9333 68.2033 13.56C68.2033 14.8267 67.8233 15.8 67.0633 16.48C66.3167 17.16 65.0967 17.5 63.4033 17.5H58.4033V3.5ZM60.2833 5.22V9.44H62.9033C63.9967 9.44 64.7567 9.26 65.1833 8.9C65.6233 8.54 65.8433 8.02 65.8433 7.34C65.8433 6.66 65.6233 6.14 65.1833 5.78C64.7567 5.40666 63.9967 5.22 62.9033 5.22H60.2833ZM60.2833 11.16V15.78H63.3033C64.3967 15.78 65.1567 15.5933 65.5833 15.22C66.0233 14.8333 66.2433 14.2467 66.2433 13.46C66.2433 12.6867 66.0233 12.1133 65.5833 11.74C65.1567 11.3533 64.3967 11.16 63.3033 11.16H60.2833Z" fill="white"/>
<path id="Vector_6" d="M73.7725 5.22H69.3125V3.5H80.1125V5.22H75.6525V17.5H73.7725V5.22Z" fill="white"/>
<path id="Vector_7" d="M87.0088 17.6603C86.1021 17.6603 85.2821 17.5136 84.5488 17.2203C83.8155 16.927 83.1821 16.4936 82.6488 15.9203C82.1288 15.347 81.7221 14.6403 81.4288 13.8003C81.1488 12.947 81.0088 11.9736 81.0088 10.8803V9.92033C81.0088 8.88033 81.1488 7.95366 81.4288 7.14033C81.7221 6.32699 82.1288 5.64033 82.6488 5.08033C83.1821 4.50699 83.8155 4.07366 84.5488 3.78033C85.2955 3.48699 86.1155 3.34033 87.0088 3.34033C87.9021 3.34033 88.7155 3.48699 89.4488 3.78033C90.1955 4.07366 90.8288 4.50033 91.3488 5.06033C91.8821 5.62033 92.2889 6.31366 92.5689 7.14033C92.8622 7.95366 93.0088 8.88033 93.0088 9.92033V10.8803C93.0088 11.9736 92.8622 12.9403 92.5689 13.7803C92.2889 14.6203 91.8821 15.327 91.3488 15.9003C90.8288 16.4736 90.1955 16.9136 89.4488 17.2203C88.7155 17.5136 87.9021 17.6603 87.0088 17.6603ZM87.0088 15.9403C88.2088 15.9403 89.1821 15.527 89.9288 14.7003C90.6755 13.8603 91.0488 12.587 91.0488 10.8803V9.92033C91.0488 9.12033 90.9488 8.42033 90.7488 7.82033C90.5488 7.20699 90.2688 6.70033 89.9088 6.30033C89.5621 5.88699 89.1421 5.58033 88.6488 5.38033C88.1555 5.16699 87.6088 5.06033 87.0088 5.06033C86.4088 5.06033 85.8621 5.16033 85.3688 5.36033C84.8755 5.56033 84.4488 5.86699 84.0888 6.28033C83.7288 6.68033 83.4488 7.18699 83.2488 7.80033C83.0621 8.40033 82.9688 9.10699 82.9688 9.92033V10.8803C82.9688 11.7336 83.0688 12.4803 83.2688 13.1203C83.4688 13.747 83.7488 14.2736 84.1088 14.7003C84.4688 15.1136 84.8955 15.427 85.3888 15.6403C85.8821 15.8403 86.4221 15.9403 87.0088 15.9403Z" fill="white"/>
<path id="Vector_8" d="M101.108 17.6603C100.228 17.6603 99.428 17.5136 98.708 17.2203C97.988 16.927 97.368 16.4936 96.848 15.9203C96.328 15.347 95.9213 14.6403 95.628 13.8003C95.348 12.947 95.208 11.9736 95.208 10.8803V9.92033C95.208 8.88033 95.348 7.95366 95.628 7.14033C95.9213 6.32699 96.328 5.64033 96.848 5.08033C97.368 4.50699 97.988 4.07366 98.708 3.78033C99.4413 3.48699 100.241 3.34033 101.108 3.34033C101.908 3.34033 102.621 3.45366 103.248 3.68033C103.888 3.90699 104.434 4.22033 104.888 4.62033C105.354 5.00699 105.728 5.46699 106.008 6.00033C106.301 6.52033 106.501 7.08699 106.608 7.70033H104.608C104.501 7.32699 104.348 6.98033 104.148 6.66033C103.961 6.34033 103.721 6.06033 103.428 5.82033C103.148 5.58033 102.808 5.39366 102.408 5.26033C102.021 5.12699 101.588 5.06033 101.108 5.06033C100.548 5.06033 100.021 5.16699 99.528 5.38033C99.048 5.58033 98.6347 5.88699 98.288 6.30033C97.9413 6.71366 97.668 7.22033 97.468 7.82033C97.268 8.42033 97.168 9.12033 97.168 9.92033V10.8803C97.168 11.7203 97.268 12.4603 97.468 13.1003C97.668 13.727 97.9413 14.2536 98.288 14.6803C98.648 15.0936 99.068 15.407 99.548 15.6203C100.028 15.8336 100.548 15.9403 101.108 15.9403C102.081 15.9403 102.854 15.6803 103.428 15.1603C104.014 14.627 104.408 13.9403 104.608 13.1003H106.608C106.501 13.767 106.301 14.3803 106.008 14.9403C105.728 15.487 105.354 15.967 104.888 16.3803C104.434 16.7803 103.888 17.0936 103.248 17.3203C102.621 17.547 101.908 17.6603 101.108 17.6603Z" fill="white"/>
<path id="Vector_9" d="M112.401 3.5H114.601L119.701 17.5H117.661L116.341 13.66H110.561L109.221 17.5H107.301L112.401 3.5ZM115.741 11.94L113.501 5.4H113.461L111.161 11.94H115.741Z" fill="white"/>
<path id="Vector_10" d="M120.895 15.94H121.095C121.655 15.94 122.088 15.78 122.395 15.46C122.715 15.1267 122.948 14.68 123.095 14.12C123.241 13.5467 123.328 12.8733 123.355 12.1C123.381 11.3267 123.395 10.4933 123.395 9.6V3.5H132.595V17.5H130.715V5.22H125.275V9.6C125.275 10.6267 125.248 11.6267 125.195 12.6C125.155 13.56 125.001 14.42 124.735 15.18C124.468 15.9267 124.055 16.5267 123.495 16.98C122.935 17.4333 122.135 17.66 121.095 17.66H120.895V15.94Z" fill="white"/>
<path id="Vector_11" d="M141.286 17.6603C140.379 17.6603 139.559 17.5136 138.826 17.2203C138.093 16.927 137.459 16.4936 136.926 15.9203C136.406 15.347 135.999 14.6403 135.706 13.8003C135.426 12.947 135.286 11.9736 135.286 10.8803V9.92033C135.286 8.88033 135.426 7.95366 135.706 7.14033C135.999 6.32699 136.406 5.64033 136.926 5.08033C137.459 4.50699 138.093 4.07366 138.826 3.78033C139.573 3.48699 140.393 3.34033 141.286 3.34033C142.179 3.34033 142.993 3.48699 143.726 3.78033C144.473 4.07366 145.106 4.50033 145.626 5.06033C146.159 5.62033 146.566 6.31366 146.846 7.14033C147.139 7.95366 147.286 8.88033 147.286 9.92033V10.8803C147.286 11.9736 147.139 12.9403 146.846 13.7803C146.566 14.6203 146.159 15.327 145.626 15.9003C145.106 16.4736 144.473 16.9136 143.726 17.2203C142.993 17.5136 142.179 17.6603 141.286 17.6603ZM141.286 15.9403C142.486 15.9403 143.459 15.527 144.206 14.7003C144.953 13.8603 145.326 12.587 145.326 10.8803V9.92033C145.326 9.12033 145.226 8.42033 145.026 7.82033C144.826 7.20699 144.546 6.70033 144.186 6.30033C143.839 5.88699 143.419 5.58033 142.926 5.38033C142.433 5.16699 141.886 5.06033 141.286 5.06033C140.686 5.06033 140.139 5.16033 139.646 5.36033C139.153 5.56033 138.726 5.86699 138.366 6.28033C138.006 6.68033 137.726 7.18699 137.526 7.80033C137.339 8.40033 137.246 9.10699 137.246 9.92033V10.8803C137.246 11.7336 137.346 12.4803 137.546 13.1203C137.746 13.747 138.026 14.2736 138.386 14.7003C138.746 15.1136 139.173 15.427 139.666 15.6403C140.159 15.8403 140.699 15.9403 141.286 15.9403Z" fill="white"/>
<path id="Vector_12" d="M149.985 3.5H151.865V9.44H159.105V3.5H160.985V17.5H159.105V11.16H151.865V17.5H149.985V3.5Z" fill="white"/>
</g>
</g>
</g>
</svg>
