<svg width="122" height="43" viewBox="0 0 122 43" fill="none" xmlns="http://www.w3.org/2000/svg">
<g clip-path="url(#clip0_31_5770)">
<path d="M122 21.2253C116.042 16.8116 109.229 15.4317 102.101 15.6666C88.5825 16.1168 75.0837 17.0073 61.5653 17.4184C42.787 17.9958 23.9989 18.2796 5.21073 18.7493C3.30341 18.7982 2.86099 17.9664 3.16577 16.3321C3.21492 16.0874 3.23459 15.8428 3.27391 15.5883C4.22758 9.63818 4.28657 10.0296 10.3625 9.09993C15.4946 8.31702 20.7151 7.06436 25.4834 5.03857C38.3038 -0.38309 51.5764 -0.745187 65.0752 0.781491C70.7283 1.41761 75.8604 3.91314 80.4813 7.05457C85.751 10.6364 91.5418 11.6737 97.6669 12.349C103.271 12.9656 108.855 14.0812 114.341 15.4122C117.546 16.1951 120.486 17.8979 122 21.2155V21.2253ZM82.4967 11.6346C76.7059 6.99585 71.0724 3.16937 64.0822 2.38646C58.7928 1.79928 53.4149 1.76013 48.0862 1.88735C43.2589 2.00479 38.4021 2.53326 34.0172 4.8722C32.572 5.64533 30.9105 6.49675 31.4807 8.62039C32.0116 10.607 33.7616 10.2058 35.2167 10.2547C47.5652 10.7245 59.9038 11.204 72.2522 11.615C75.4573 11.7227 78.6723 11.6346 82.5066 11.6346H82.4967Z" fill="white"/>
<path d="M6.82311 43C5.83995 43 4.93545 42.8434 4.1096 42.5205C3.28375 42.1975 2.56604 41.7473 1.94665 41.1504C1.33709 40.5632 0.855347 39.8684 0.511242 39.0854C0.167137 38.3025 0 37.4315 0 36.4725C0 35.5134 0.167137 34.6424 0.511242 33.8595C0.855347 33.0766 1.32726 32.3818 1.94665 31.7946C2.56604 31.2074 3.29358 30.7474 4.11943 30.4245C4.94528 30.1015 5.84979 29.945 6.83294 29.945C7.87509 29.945 8.82875 30.1211 9.69393 30.4832C10.5591 30.8355 11.2866 31.3738 11.8765 32.0686L10.3428 33.4974C9.8709 32.9983 9.34983 32.6264 8.7796 32.3818C8.20936 32.1371 7.59981 32.0099 6.94109 32.0099C6.28238 32.0099 5.66299 32.1175 5.11242 32.3328C4.56185 32.5481 4.0801 32.8613 3.67701 33.2625C3.27391 33.6638 2.94947 34.1335 2.72335 34.6816C2.49722 35.2296 2.37924 35.8266 2.37924 36.4725C2.37924 37.1184 2.49722 37.7251 2.72335 38.2634C2.9593 38.8114 3.27391 39.2812 3.67701 39.6824C4.0801 40.0837 4.56185 40.387 5.11242 40.6121C5.66299 40.8274 6.27254 40.9351 6.94109 40.9351C7.60964 40.9351 8.20936 40.8078 8.7796 40.5632C9.34983 40.3185 9.8709 39.9369 10.3428 39.428L11.8765 40.8568C11.2768 41.5614 10.5493 42.0899 9.69393 42.452C8.83858 42.8141 7.87509 43 6.81328 43H6.82311Z" fill="white"/>
<path d="M12.0928 42.8141L17.8345 30.1211H20.1646L25.9259 42.8141H23.4286L18.5129 31.3738H19.4567L14.5212 42.8141H12.0928ZM14.7277 39.8781L15.3864 38.0285H22.2587L22.8977 39.8781H14.7277Z" fill="white"/>
<path d="M27.5382 42.8141V30.1211H32.7883C33.9189 30.1211 34.8824 30.2973 35.6984 30.6594C36.5046 31.0117 37.124 31.5303 37.5664 32.2056C37.999 32.8809 38.2252 33.6931 38.2252 34.6326C38.2252 35.5721 38.0089 36.3648 37.5664 37.0303C37.124 37.6958 36.5046 38.2047 35.6984 38.5765C34.8923 38.9386 33.9189 39.1246 32.7883 39.1246H28.8753L29.9175 38.0677V42.8238H27.5481L27.5382 42.8141ZM29.9076 38.3221L28.8655 37.1771H32.6703C33.7125 37.1771 34.499 36.952 35.0299 36.5018C35.5608 36.0517 35.8263 35.4351 35.8263 34.6326C35.8263 33.8301 35.5608 33.2136 35.0299 32.7732C34.499 32.3328 33.7125 32.1077 32.6703 32.1077H28.8655L29.9076 30.9432V38.3221ZM35.8852 42.8141L32.6605 38.2047H35.197L38.4415 42.8141H35.8852Z" fill="white"/>
<path d="M45.8839 30.1211H51.4781C52.8349 30.1211 54.0442 30.3853 55.0961 30.9138C56.1481 31.4423 56.9641 32.1762 57.5442 33.1353C58.1243 34.0944 58.4192 35.2002 58.4192 36.4725C58.4192 37.7447 58.1243 38.8506 57.5442 39.8096C56.9641 40.7687 56.1481 41.5027 55.0961 42.0312C54.0442 42.5596 52.8447 42.8238 51.4781 42.8238H45.8839V30.1211ZM48.2534 40.8274H51.3306C52.2941 40.8274 53.12 40.6415 53.818 40.2794C54.5161 39.9173 55.0666 39.4084 55.4599 38.7527C55.8532 38.097 56.0498 37.3337 56.0498 36.4725C56.0498 35.6113 55.8532 34.8088 55.4599 34.1727C55.0666 33.5366 54.5161 33.0277 53.818 32.6656C53.12 32.3035 52.2941 32.1175 51.3306 32.1175H48.2534V40.8274Z" fill="white"/>
<path d="M63.3055 40.8274H70.5022V42.8238H60.9361V30.1309H70.2466V32.1273H63.3055V40.8372V40.8274ZM63.1187 35.4058H69.4601V37.3435H63.1187V35.4058Z" fill="white"/>
<path d="M71.3379 42.8141L77.0795 30.1211H79.4096L85.1709 42.8141H82.6737L77.7579 31.3738H78.7017L73.7663 42.8141H71.3379ZM73.9826 39.8781L74.6413 38.0285H81.5136L82.1526 39.8781H73.9826Z" fill="white"/>
<path d="M86.7833 42.8141V30.1211H89.1527V40.8176H95.8185V42.8141H86.7833Z" fill="white"/>
<path d="M100.066 40.8274H107.262V42.8238H97.6964V30.1309H107.007V32.1273H100.066V40.8372V40.8274ZM99.8888 35.4058H106.23V37.3435H99.8888V35.4058Z" fill="white"/>
<path d="M109.907 42.8141V30.1211H115.157C116.288 30.1211 117.251 30.2973 118.067 30.6594C118.874 31.0117 119.493 31.5303 119.935 32.2056C120.368 32.8809 120.594 33.6931 120.594 34.6326C120.594 35.5721 120.378 36.3648 119.935 37.0303C119.493 37.6958 118.874 38.2047 118.067 38.5765C117.261 38.9386 116.288 39.1246 115.157 39.1246H111.244L112.286 38.0677V42.8238H109.917L109.907 42.8141ZM112.277 38.3221L111.234 37.1771H115.039C116.081 37.1771 116.868 36.952 117.399 36.5018C117.93 36.0517 118.195 35.4351 118.195 34.6326C118.195 33.8301 117.93 33.2136 117.399 32.7732C116.868 32.3328 116.081 32.1077 115.039 32.1077H111.234L112.277 30.9432V38.3221ZM118.254 42.8141L115.029 38.2047H117.566L120.81 42.8141H118.254Z" fill="white"/>
<path d="M119.719 23.897C116.003 19.1212 97.6275 21.4112 91.3452 21.284C65.2718 22.2431 35.1577 23.4468 9.22202 23.9753C6.78379 24.0829 3.04779 24.2493 2.0548 21.3819C1.97615 21.1274 2.12362 20.8534 2.37924 20.7653C2.62503 20.687 2.89048 20.8142 2.97897 21.0491C4.04078 23.1728 7.04924 22.6149 9.1237 22.4681C41.4401 19.953 73.8646 18.8472 106.279 19.1016C110.32 19.3365 118.726 19.6497 120.683 23.6719C120.83 24.3471 119.935 24.5429 119.729 23.897H119.719Z" fill="white"/>
</g>
<defs>
<clipPath id="clip0_31_5770">
<rect width="122" height="43" fill="white"/>
</clipPath>
</defs>
</svg>
