<svg xmlns="http://www.w3.org/2000/svg" width="18" height="19" viewBox="0 0 18 19" fill="none">
<path d="M14.4262 11.9453L12.5212 11.7278C12.2972 11.7015 12.0701 11.7263 11.8571 11.8003C11.6441 11.8744 11.4506 11.9958 11.2912 12.1553L9.91119 13.5353C7.78208 12.4525 6.05153 10.7219 4.96869 8.59281L6.35619 7.20531C6.67869 6.88281 6.83619 6.43281 6.78369 5.97531L6.56619 4.08531C6.52367 3.71945 6.34809 3.38199 6.07287 3.1372C5.79765 2.89241 5.44202 2.75738 5.07369 2.75781H3.77619C2.92869 2.75781 2.22369 3.46281 2.27619 4.31031C2.67369 10.7153 7.79619 15.8303 14.1937 16.2278C15.0412 16.2803 15.7462 15.5753 15.7462 14.7278V13.4303C15.7537 12.6728 15.1837 12.0353 14.4262 11.9453Z" fill="#425EF1"/>
</svg>