<svg xmlns="http://www.w3.org/2000/svg" width="32" height="32" viewBox="0 0 32 32" fill="none">
<path d="M29.3346 15.3334V19.4667C29.3346 22.4537 29.3346 23.9472 28.7533 25.088C28.242 26.0916 27.4261 26.9075 26.4226 27.4188C25.2817 28.0001 23.7882 28.0001 20.8013 28.0001H11.2013C8.21436 28.0001 6.72088 28.0001 5.58002 27.4188C4.57649 26.9075 3.76059 26.0916 3.24927 25.088C2.66797 23.9472 2.66797 22.4537 2.66797 19.4667V12.5334C2.66797 9.54647 2.66797 8.05299 3.24927 6.91213C3.76059 5.9086 4.57649 5.0927 5.58002 4.58138C6.72088 4.00008 8.21436 4.00008 11.2013 4.00008H16.668M25.3346 10.6667V2.66675M21.3346 6.66675H29.3346M21.3346 16.0001C21.3346 18.9456 18.9468 21.3334 16.0013 21.3334C13.0558 21.3334 10.668 18.9456 10.668 16.0001C10.668 13.0546 13.0558 10.6667 16.0013 10.6667C18.9468 10.6667 21.3346 13.0546 21.3346 16.0001Z" stroke="#9CA5B3" stroke-linecap="round" stroke-linejoin="round"/>
</svg>