<svg width="72" height="72" viewBox="0 0 72 72" fill="none" xmlns="http://www.w3.org/2000/svg">
<path d="M36 66C52.5685 66 66 52.5685 66 36C66 19.4315 52.5685 6 36 6C19.4315 6 6 19.4315 6 36C6 52.5685 19.4315 66 36 66Z" stroke="white" stroke-width="2" stroke-linecap="round" stroke-linejoin="round"/>
<path d="M28.5 26.896C28.5 25.4641 28.5 24.7482 28.7992 24.3485C29.06 24.0002 29.4591 23.7823 29.8931 23.7513C30.3912 23.7157 30.9934 24.1029 32.1978 24.8772L46.3596 33.9812C47.4048 34.6531 47.9273 34.989 48.1078 35.4162C48.2655 35.7894 48.2655 36.2106 48.1078 36.5838C47.9273 37.011 47.4048 37.3469 46.3596 38.0188L32.1978 47.1228C30.9934 47.8971 30.3912 48.2843 29.8931 48.2487C29.4591 48.2177 29.06 47.9998 28.7992 47.6515C28.5 47.2518 28.5 46.5359 28.5 45.104V26.896Z" stroke="white" stroke-width="2" stroke-linecap="round" stroke-linejoin="round"/>
</svg>
