<svg xmlns="http://www.w3.org/2000/svg" width="24" height="25" viewBox="0 0 24 25" fill="none">
<g clip-path="url(#clip0_31_5797)">
<path d="M23.7078 22.7938L17.7388 16.8248C19.3654 14.8354 20.1651 12.2969 19.9726 9.73432C19.7801 7.17179 18.61 4.78129 16.7043 3.05728C14.7987 1.33327 12.3034 0.407651 9.7344 0.471883C7.16545 0.536114 4.71946 1.58528 2.90237 3.40237C1.08528 5.21946 0.0361144 7.66545 -0.0281174 10.2344C-0.0923492 12.8034 0.833269 15.2987 2.55728 17.2043C4.28129 19.11 6.67179 20.2801 9.23432 20.4726C11.7969 20.6651 14.3354 19.8654 16.3248 18.2388L22.2938 24.2078C22.4824 24.3899 22.735 24.4907 22.9972 24.4884C23.2594 24.4862 23.5102 24.381 23.6956 24.1956C23.881 24.0102 23.9862 23.7594 23.9884 23.4972C23.9907 23.235 23.8899 22.9824 23.7078 22.7938ZM10.0008 18.5008C8.41851 18.5008 6.87179 18.0316 5.5562 17.1525C4.2406 16.2735 3.21522 15.024 2.60972 13.5622C2.00422 12.1004 1.84579 10.4919 2.15448 8.94004C2.46316 7.38819 3.22508 5.96272 4.3439 4.8439C5.46272 3.72508 6.88819 2.96316 8.44004 2.65448C9.99189 2.34579 11.6004 2.50422 13.0622 3.10972C14.524 3.71522 15.7735 4.7406 16.6525 6.0562C17.5316 7.37179 18.0008 8.91851 18.0008 10.5008C17.9984 12.6218 17.1548 14.6552 15.655 16.155C14.1552 17.6548 12.1218 18.4984 10.0008 18.5008Z" fill="white"/>
</g>
<defs>
<clipPath id="clip0_31_5797">
<rect width="24" height="24" fill="white" transform="translate(0 0.5)"/>
</clipPath>
</defs>
</svg>