<svg width="34" height="40" viewBox="0 0 34 40" fill="none" xmlns="http://www.w3.org/2000/svg">
<path id="Vector" d="M17.3227 0.309611L33.7001 15.5071C34.0837 15.8643 34.0952 16.4574 33.7264 16.829C33.5371 17.0203 33.2836 17.116 33.0317 17.116V17.1192H0.968046C0.433005 17.1192 0 16.6998 0 16.1816V9.34251C0 8.82429 0.432963 8.4049 0.968046 8.4049H15.6369V0.937606C15.6369 0.41939 16.0698 0 16.6049 0C16.8914 0 17.1466 0.119592 17.3244 0.310938L17.3227 0.309611ZM16.6773 39.6904L0.299909 24.4929C-0.0836845 24.1357 -0.0952072 23.5426 0.273568 23.171C0.462895 22.9797 0.716436 22.884 0.968299 22.884V22.8808H33.032C33.567 22.8808 34 23.3002 34 23.8184V30.6575C34 31.1757 33.567 31.5951 33.032 31.5951H18.3631V39.0624C18.3631 39.5806 17.9302 40 17.3951 40C17.1086 40 16.8534 39.8804 16.6756 39.6891L16.6773 39.6904ZM3.37529 24.7574L16.4291 36.8713V30.6588C16.4291 30.1406 16.8621 29.7212 17.3971 29.7212H32.0643V24.7575H3.37398L3.37529 24.7574ZM30.6284 15.2426L17.5746 3.12868V9.34115C17.5746 9.85937 17.1417 10.2788 16.6066 10.2788H1.93942V15.2425H30.6297L30.6284 15.2426Z" fill="#E4ECF8"/>
</svg>
