<svg xmlns="http://www.w3.org/2000/svg" width="32" height="32" viewBox="0 0 32 32" fill="none">
<path d="M29.3346 15.3334V19.4667C29.3346 22.4537 29.3346 23.9472 28.7533 25.088C28.242 26.0916 27.4261 26.9075 26.4226 27.4188C25.2817 28.0001 23.7882 28.0001 20.8013 28.0001H11.2013C8.21436 28.0001 6.72088 28.0001 5.58002 27.4188C4.57649 26.9075 3.76059 26.0916 3.24927 25.088C2.66797 23.9472 2.66797 22.4537 2.66797 19.4667V12.5334C2.66797 9.54647 2.66797 8.05299 3.24927 6.91213C3.76059 5.9086 4.57649 5.0927 5.58002 4.58138C6.72088 4.00008 8.21436 4.00008 11.2013 4.00008H16.668M25.3346 10.6667V2.66675M21.3346 6.66675H29.3346" stroke="#9CA5B3" stroke-linecap="round" stroke-linejoin="round"/>
<path d="M12 12.0654C12 11.429 12 11.1108 12.133 10.9332C12.2489 10.7784 12.4263 10.6815 12.6192 10.6677C12.8405 10.6519 13.1082 10.824 13.6435 11.1681L19.9376 15.2144C20.4021 15.513 20.6344 15.6623 20.7146 15.8521C20.7847 16.018 20.7847 16.2052 20.7146 16.3711C20.6344 16.5609 20.4021 16.7103 19.9376 17.0089L13.6435 21.0551C13.1082 21.3992 12.8405 21.5713 12.6192 21.5555C12.4263 21.5417 12.2489 21.4448 12.133 21.29C12 21.1124 12 20.7942 12 20.1578V12.0654Z" stroke="#9CA5B3" stroke-linecap="round" stroke-linejoin="round"/>
</svg>